<svg width="32" height="32" viewBox="0 0 32 32" fill="none" xmlns="http://www.w3.org/2000/svg">
<rect width="32" height="32" rx="16" fill="white"/>
<path fill-rule="evenodd" clip-rule="evenodd" d="M12.2419 10.5278C11.1125 12.6804 9.37037 15.6608 12.2895 18.5128C13.4799 19.6758 15.3191 19.0391 15.6262 17.4485C16.0598 15.2026 13.4759 12.9713 13.0205 15.2189C12.8862 15.8818 13.2094 15.6473 12.817 16.2082C11.6244 15.399 11.9835 11.9818 14.0118 10.4459C16.0986 8.86595 19.129 10.0561 20.1612 11.5219C21.3347 13.1885 22.0427 15.4079 22.0726 17.9956C22.1344 23.3616 18.4549 20.5313 18.9728 23.3651C19.605 26.8231 21.9997 25.2515 23.5367 23.818C24.9305 22.5178 26.0647 20.9312 26.6796 18.3829C29.1618 8.09293 16.6447 1.07828 9.04973 7.40868C6.28232 9.71567 3.79394 14.4415 5.63143 19.5945C6.02563 20.6997 6.50999 21.5255 7.08364 22.3317C7.96919 23.5762 10.3543 26.2501 12.0036 25.2223C12.8018 24.7249 13.352 22.9501 12.8862 21.952L11.0772 19.5549C8.85001 16.2809 9.3487 11.8811 12.2419 10.5278Z" fill="#23273B"/>
</svg>
