<svg width="161" height="51" viewBox="0 0 161 51" fill="none" xmlns="http://www.w3.org/2000/svg">
<path d="M25.5669 0.664062H135.453C149.032 0.664062 160.02 11.6527 160.02 25.231C160.02 38.8093 149.032 49.7979 135.453 49.7979H25.5669C11.9886 49.7979 1 38.8093 1 25.231C1 11.6527 11.9886 0.664062 25.5669 0.664062Z" fill="#191C2E" stroke="#191C2E" stroke-width="0.963885"/>
<path d="M58.708 13.5425V19.2468H60.4228C61.3327 19.2468 62.0326 18.9668 62.5925 18.4419C63.1525 17.9169 63.3974 17.217 63.3974 16.3771C63.3974 15.5372 63.1175 14.8373 62.5925 14.3124C62.0676 13.7874 61.3327 13.5425 60.4228 13.5425H58.708ZM60.4228 14.3824C61.0527 14.3824 61.5776 14.5574 61.9276 14.9423C62.3126 15.2923 62.4875 15.7822 62.4875 16.4121C62.4875 17.007 62.3126 17.497 61.9276 17.8819C61.5427 18.2669 61.0527 18.4419 60.4228 18.4419H59.5829V14.3824H60.4228Z" fill="#DEDEDE"/>
<path d="M66.3025 14.9072C65.7076 14.9072 65.1827 15.1172 64.7627 15.5371C64.3428 15.9571 64.1328 16.482 64.1328 17.112C64.1328 17.7419 64.3428 18.2668 64.7627 18.6868C65.1827 19.1067 65.6726 19.3167 66.3025 19.3517C66.8975 19.3517 67.4224 19.1417 67.8423 18.7218C68.2623 18.3018 68.4723 17.7769 68.4723 17.1469C68.4723 16.517 68.2623 15.9921 67.8423 15.5721C67.3874 15.1172 66.8975 14.9072 66.3025 14.9072ZM66.3025 15.7471C66.6525 15.7471 66.9675 15.8871 67.2124 16.1671C67.4574 16.412 67.5624 16.762 67.5624 17.1469C67.5624 17.5319 67.4224 17.8819 67.2124 18.1268C66.9675 18.3718 66.6525 18.5118 66.3025 18.5118C65.9526 18.5118 65.6376 18.3718 65.3927 18.1268C65.1477 17.8469 65.0427 17.5319 65.0427 17.1469C65.0427 16.762 65.1477 16.412 65.3927 16.1671C65.6376 15.8871 65.9526 15.7471 66.3025 15.7471Z" fill="#DEDEDE"/>
<path d="M73.6165 17.7419L72.3567 14.9072H72.0417L70.8169 17.7769L69.732 15.0122H68.7871L70.6069 19.3517H70.9218L72.2167 16.517L73.5115 19.3517H73.8265L75.6113 15.0122H74.6664L73.6165 17.7419Z" fill="#DEDEDE"/>
<path d="M78.4106 14.9072C77.9207 14.9072 77.5007 15.0822 77.1858 15.4322V15.0122H76.3809V19.2467H77.2558V16.727C77.2558 16.1321 77.6407 15.7471 78.2006 15.7471C78.7256 15.7471 79.0755 16.1321 79.0755 16.727V19.2467H79.9504V16.587C79.9504 15.5721 79.3555 14.9072 78.4106 14.9072Z" fill="#DEDEDE"/>
<path d="M81.1406 12.7725V19.2467H82.0155V12.7725H81.1406Z" fill="#DEDEDE"/>
<path d="M85.1648 14.9072C84.5699 14.9072 84.045 15.1172 83.625 15.5371C83.2051 15.9571 82.9951 16.482 82.9951 17.112C82.9951 17.7419 83.2051 18.2668 83.625 18.6868C84.045 19.1067 84.5349 19.3167 85.1648 19.3517C85.7598 19.3517 86.2847 19.1417 86.7047 18.7218C87.1246 18.3018 87.3346 17.7769 87.3346 17.1469C87.3346 16.517 87.1246 15.9921 86.7047 15.5721C86.2847 15.1172 85.7598 14.9072 85.1648 14.9072ZM85.1998 15.7471C85.5498 15.7471 85.8648 15.8871 86.1097 16.1671C86.3547 16.412 86.4597 16.762 86.4597 17.1469C86.4597 17.5319 86.3197 17.8819 86.1097 18.1268C85.8648 18.3718 85.5498 18.5118 85.1998 18.5118C84.8499 18.5118 84.5349 18.3718 84.2899 18.1268C84.045 17.8469 83.94 17.5319 83.94 17.1469C83.94 16.762 84.045 16.412 84.2899 16.1671C84.4999 15.8871 84.8149 15.7471 85.1998 15.7471Z" fill="#DEDEDE"/>
<path d="M89.9239 14.9072C89.189 14.9072 88.6291 15.2222 88.2092 15.8171L88.6991 16.342C89.0491 15.9221 89.434 15.7121 89.819 15.7121C90.3789 15.7121 90.6938 16.0271 90.6938 16.622V16.902H89.539C88.6291 16.902 88.0342 17.3919 88.0342 18.1268C88.0342 18.8617 88.5941 19.3517 89.469 19.3517C90.0289 19.3517 90.4489 19.1767 90.7638 18.7917V19.2817H91.5687V16.727C91.5687 15.5371 90.9038 14.9072 89.9239 14.9072ZM89.644 18.6518C89.224 18.6518 88.9441 18.4418 88.9441 18.0918C88.9441 17.7419 89.189 17.5669 89.679 17.5669H90.7288V17.6369C90.6939 18.2318 90.2389 18.6518 89.644 18.6518Z" fill="#DEDEDE"/>
<path d="M95.8733 15.537C95.5583 15.117 95.1034 14.907 94.5084 14.907C93.9485 14.907 93.4586 15.117 93.0736 15.537C92.6887 15.9569 92.5137 16.4818 92.5137 17.1118C92.5137 17.7417 92.6887 18.2666 93.0736 18.6866C93.4586 19.1065 93.9135 19.3165 94.5084 19.3165C95.1383 19.3165 95.6283 19.0715 95.9432 18.6166V19.2115H96.7481V12.7373H95.8733V15.537ZM94.6834 18.5116C94.3334 18.5116 94.0185 18.3716 93.7735 18.1266C93.5285 17.8817 93.4236 17.5317 93.4236 17.1118C93.4236 16.6918 93.5285 16.3768 93.7735 16.1319C94.0185 15.8869 94.2985 15.7469 94.6834 15.7469C94.9984 15.7469 95.3133 15.8519 95.5583 16.0969C95.8033 16.3419 95.9083 16.6918 95.9083 17.1118C95.9083 18.0566 95.3483 18.5116 94.6834 18.5116Z" fill="#DEDEDE"/>
<path d="M102.243 14.9072C101.648 14.9072 101.123 15.1172 100.703 15.5371C100.283 15.9571 100.073 16.482 100.073 17.112C100.073 17.7419 100.283 18.2668 100.703 18.6868C101.123 19.1067 101.613 19.3167 102.243 19.3517C102.838 19.3517 103.363 19.1417 103.783 18.7218C104.203 18.3018 104.413 17.7769 104.413 17.1469C104.413 16.517 104.203 15.9921 103.783 15.5721C103.328 15.1172 102.838 14.9072 102.243 14.9072ZM102.243 15.7471C102.593 15.7471 102.908 15.8871 103.153 16.1671C103.398 16.412 103.503 16.762 103.503 17.1469C103.503 17.5319 103.363 17.8819 103.153 18.1268C102.908 18.3718 102.593 18.5118 102.243 18.5118C101.893 18.5118 101.578 18.3718 101.333 18.1268C101.088 17.8469 100.983 17.5319 100.983 17.1469C100.983 16.762 101.088 16.412 101.333 16.1671C101.578 15.8871 101.893 15.7471 102.243 15.7471Z" fill="#DEDEDE"/>
<path d="M107.422 14.9072C106.932 14.9072 106.512 15.0822 106.197 15.4322V15.0122H105.393V19.2467H106.267V16.727C106.267 16.1321 106.652 15.7471 107.212 15.7471C107.737 15.7471 108.087 16.1321 108.087 16.727V19.2467H108.962V16.587C108.962 15.5721 108.402 14.9072 107.422 14.9072Z" fill="#DEDEDE"/>
<path d="M114.387 18.512C113.862 18.512 113.582 18.337 113.582 17.7771V15.7823H114.807V15.0124H113.582V13.8926H112.707V15.0124H112.042V15.7823H112.707V17.8471C112.707 18.827 113.267 19.3169 114.212 19.3169C114.422 19.3169 114.667 19.2819 114.947 19.2119V18.442C114.667 18.512 114.492 18.512 114.387 18.512Z" fill="#DEDEDE"/>
<path d="M117.851 14.9072C117.361 14.9072 116.976 15.0822 116.661 15.4321V12.7725H115.786V19.2467H116.661V16.727C116.661 16.132 117.046 15.7471 117.606 15.7471C118.131 15.7471 118.481 16.132 118.481 16.727V19.2467H119.356V16.587C119.356 15.6071 118.796 14.9072 117.851 14.9072Z" fill="#DEDEDE"/>
<path d="M124.326 16.867C124.326 16.3071 124.151 15.8521 123.801 15.4672C123.451 15.0822 122.996 14.9072 122.471 14.9072C121.876 14.9072 121.386 15.1172 120.966 15.5721C120.546 15.9921 120.371 16.517 120.371 17.1469C120.371 17.7769 120.581 18.3018 121.001 18.7218C121.421 19.1417 121.946 19.3517 122.576 19.3517C123.206 19.3517 123.731 19.1417 124.186 18.6518L123.766 18.0218C123.416 18.3718 122.996 18.5118 122.576 18.5118C121.876 18.5118 121.351 18.0918 121.246 17.3919H124.291C124.291 17.2169 124.326 17.042 124.326 16.867ZM122.401 15.6771C122.996 15.6771 123.451 16.0971 123.451 16.727H121.246C121.351 16.0971 121.806 15.6771 122.401 15.6771Z" fill="#DEDEDE"/>
<path d="M67.9119 34.4701L63.3625 23.5864H62.8025L58.2881 34.4701H60.0379L60.7728 32.6853H65.3922L66.1271 34.4701H67.9119ZM61.3677 31.2155L63.0825 26.771L64.7623 31.2155H61.3677Z" fill="#DEDEDE"/>
<path d="M73.302 26.3159C72.1822 26.3159 71.2023 26.8059 70.6423 27.6458V26.5259H69.1025V37.4095H70.7473V33.525C71.3423 34.2949 72.2171 34.6449 73.302 34.6449C74.3869 34.6449 75.2968 34.2599 75.9967 33.455C76.6966 32.6501 77.0466 31.6702 77.0466 30.4804C77.0466 29.2905 76.6966 28.3107 75.9967 27.5058C75.2968 26.7009 74.3869 26.3159 73.302 26.3159ZM73.0221 33.0701C72.3921 33.0701 71.8322 32.8601 71.3773 32.4052C70.9223 31.9502 70.7123 31.3203 70.7123 30.4454C70.7123 28.7306 71.7622 27.8557 73.0221 27.8557C73.687 27.8557 74.2469 28.1007 74.7018 28.5906C75.1568 29.0806 75.3668 29.7105 75.3668 30.4804C75.3668 31.2503 75.1568 31.8452 74.7018 32.3352C74.2469 32.8251 73.687 33.0701 73.0221 33.0701Z" fill="#DEDEDE"/>
<path d="M82.7854 26.3159C81.6656 26.3159 80.6857 26.8059 80.1257 27.6458V26.5259H78.5859V37.4095H80.2307V33.525C80.8257 34.2949 81.7005 34.6449 82.7854 34.6449C83.8703 34.6449 84.7802 34.2599 85.4801 33.455C86.18 32.6501 86.5299 31.6702 86.5299 30.4804C86.5299 29.2905 86.18 28.3107 85.4801 27.5058C84.7802 26.7009 83.8703 26.3159 82.7854 26.3159ZM82.5404 33.0701C81.9105 33.0701 81.3506 32.8601 80.8957 32.4052C80.4407 31.9502 80.2307 31.3203 80.2307 30.4454C80.2307 28.7306 81.2806 27.8557 82.5404 27.8557C83.2054 27.8557 83.7653 28.1007 84.2202 28.5906C84.6752 29.0806 84.8852 29.7105 84.8852 30.4804C84.8852 31.2503 84.6752 31.8452 84.2202 32.3352C83.7303 32.8251 83.2054 33.0701 82.5404 33.0701Z" fill="#DEDEDE"/>
<path d="M95.3835 23.5864C94.4737 23.5864 93.7037 23.8664 93.0738 24.3913C92.4439 24.9163 92.129 25.6162 92.129 26.4911C92.129 27.8559 93.0038 28.7308 94.5086 29.4657L95.6285 30.0256C96.7134 30.5506 97.1333 30.8655 97.1333 31.6354C97.1333 32.5453 96.4334 33.1402 95.3485 33.1402C94.2987 33.1402 93.4238 32.5803 92.6539 31.4254L91.499 32.3353C92.3039 33.7702 93.7038 34.645 95.3835 34.645C96.3634 34.645 97.2033 34.3651 97.8332 33.8051C98.4982 33.2452 98.8131 32.4753 98.8131 31.5654C98.8131 30.1656 98.0082 29.3257 96.3634 28.5208L95.2086 27.9609C94.1587 27.4359 93.7737 27.156 93.7737 26.4211C93.7737 25.5812 94.4736 25.1262 95.3135 25.1262C96.1884 25.1262 96.9233 25.5812 97.4833 26.4211L98.6381 25.5112C98.0432 24.3563 96.8184 23.5864 95.3835 23.5864Z" fill="#DEDEDE"/>
<path d="M103.992 33.105C103.013 33.105 102.488 32.7551 102.488 31.7402V27.9607H104.762V26.4909H102.488V24.3911H100.843V26.4909H99.583V27.9607H100.843V31.8452C100.843 33.7 101.893 34.6098 103.643 34.6098C104.027 34.6098 104.482 34.5398 105.007 34.4349V33C104.552 33.07 104.237 33.105 103.992 33.105Z" fill="#DEDEDE"/>
<path d="M109.732 26.3159C108.612 26.3159 107.632 26.7359 106.862 27.5058C106.092 28.3107 105.707 29.2905 105.707 30.4454C105.707 31.6003 106.092 32.6151 106.862 33.385C107.632 34.1899 108.577 34.5749 109.732 34.6099C110.851 34.6099 111.796 34.1899 112.601 33.42C113.406 32.6151 113.791 31.6353 113.791 30.4454C113.791 29.2905 113.371 28.2757 112.601 27.5058C111.831 26.7359 110.851 26.3159 109.732 26.3159ZM109.767 27.8907C110.431 27.8907 110.991 28.1357 111.446 28.6606C111.901 29.1506 112.146 29.7455 112.146 30.5154C112.146 31.2503 111.901 31.8452 111.446 32.3702C110.991 32.8601 110.431 33.1051 109.767 33.1051C109.067 33.1051 108.507 32.8601 108.087 32.3702C107.632 31.8802 107.422 31.2503 107.422 30.5154C107.422 29.7805 107.632 29.1506 108.087 28.6606C108.507 28.1357 109.067 27.8907 109.767 27.8907Z" fill="#DEDEDE"/>
<path d="M119.111 26.4209C118.166 26.4209 117.431 26.8058 116.871 27.5408V26.4909H115.331V34.4349H116.976V30.2004C116.976 28.8006 117.921 27.9957 119.216 27.9957H119.706V26.4909C119.566 26.4559 119.356 26.4209 119.111 26.4209Z" fill="#DEDEDE"/>
<path d="M127.755 29.9553C127.755 28.9054 127.405 28.0305 126.74 27.3306C126.075 26.6307 125.235 26.2808 124.22 26.2808C123.1 26.2808 122.156 26.7007 121.421 27.5056C120.651 28.3105 120.301 29.2904 120.301 30.4452C120.301 31.6351 120.686 32.615 121.456 33.4199C122.226 34.2248 123.205 34.6097 124.395 34.6097C125.55 34.6097 126.565 34.1898 127.44 33.3149L126.67 32.16C125.97 32.7899 125.235 33.1049 124.43 33.1049C123.1 33.1049 122.156 32.335 121.946 31.0052H127.65C127.685 30.6552 127.755 30.3053 127.755 29.9553ZM124.15 27.7506C125.27 27.7506 126.11 28.5205 126.11 29.7103H121.946C122.191 28.5205 123.065 27.7506 124.15 27.7506Z" fill="#DEDEDE"/>
<path d="M50.6944 24.5309C50.6594 21.4863 53.354 20.0165 53.459 19.9465C51.9542 17.8817 49.5745 17.6018 48.7696 17.5668C46.8099 17.3568 44.8851 18.6866 43.8702 18.6866C42.8553 18.6866 41.2805 17.6018 39.6357 17.6367C37.501 17.6717 35.4713 18.8266 34.3864 20.6464C32.1117 24.3209 33.7915 29.7452 35.9962 32.7199C37.0811 34.1897 38.3409 35.7995 40.0207 35.7645C41.6655 35.6945 42.2604 34.7846 44.2202 34.7846C46.1799 34.7846 46.7399 35.7645 48.4546 35.7295C50.2044 35.6945 51.3243 34.2597 52.3742 32.7899C53.634 31.1101 54.1239 29.4653 54.1589 29.3953C54.0889 29.3603 50.7294 28.1704 50.6944 24.5309ZM47.4748 15.642C48.3497 14.6271 48.9446 13.2273 48.7696 11.7925C47.5098 11.8275 45.9 12.5974 44.9901 13.6123C44.1852 14.4871 43.4503 15.957 43.6602 17.3218C45.0951 17.4268 46.5649 16.6219 47.4748 15.642Z" fill="#DEDEDE"/>
</svg>
