<svg width="161" height="51" viewBox="0 0 161 51" fill="none" xmlns="http://www.w3.org/2000/svg">
<path d="M25.5669 0.664001H135.453C149.032 0.664001 160.02 11.6526 160.02 25.2309C160.02 38.8092 149.032 49.7979 135.453 49.7979H25.5669C11.9886 49.7979 1 38.8092 1 25.2309C1 11.6526 11.9886 0.664001 25.5669 0.664001Z" stroke="#DEDEDE" stroke-width="0.963885"/>
<path d="M58.708 13.5424V19.2467H60.4228C61.3327 19.2467 62.0326 18.9667 62.5925 18.4418C63.1525 17.9169 63.3974 17.217 63.3974 16.3771C63.3974 15.5372 63.1175 14.8373 62.5925 14.3123C62.0676 13.7874 61.3327 13.5424 60.4228 13.5424H58.708ZM60.4228 14.3823C61.0527 14.3823 61.5776 14.5573 61.9276 14.9422C62.3126 15.2922 62.4875 15.7821 62.4875 16.4121C62.4875 17.007 62.3126 17.4969 61.9276 17.8819C61.5427 18.2668 61.0527 18.4418 60.4228 18.4418H59.5829V14.3823H60.4228Z" fill="#DEDEDE"/>
<path d="M66.3025 14.9072C65.7076 14.9072 65.1827 15.1172 64.7627 15.5371C64.3428 15.9571 64.1328 16.482 64.1328 17.112C64.1328 17.7419 64.3428 18.2668 64.7627 18.6868C65.1827 19.1067 65.6726 19.3167 66.3025 19.3517C66.8975 19.3517 67.4224 19.1417 67.8423 18.7218C68.2623 18.3018 68.4723 17.7769 68.4723 17.1469C68.4723 16.517 68.2623 15.9921 67.8423 15.5721C67.3874 15.1172 66.8975 14.9072 66.3025 14.9072ZM66.3025 15.7471C66.6525 15.7471 66.9675 15.8871 67.2124 16.1671C67.4574 16.412 67.5624 16.762 67.5624 17.1469C67.5624 17.5319 67.4224 17.8819 67.2124 18.1268C66.9675 18.3718 66.6525 18.5118 66.3025 18.5118C65.9526 18.5118 65.6376 18.3718 65.3927 18.1268C65.1477 17.8469 65.0427 17.5319 65.0427 17.1469C65.0427 16.762 65.1477 16.412 65.3927 16.1671C65.6376 15.8871 65.9526 15.7471 66.3025 15.7471Z" fill="#DEDEDE"/>
<path d="M73.6165 17.7419L72.3567 14.9072H72.0417L70.8169 17.7769L69.732 15.0122H68.7871L70.6069 19.3517H70.9218L72.2167 16.517L73.5115 19.3517H73.8265L75.6113 15.0122H74.6664L73.6165 17.7419Z" fill="#DEDEDE"/>
<path d="M78.4106 14.9072C77.9207 14.9072 77.5007 15.0822 77.1858 15.4322V15.0122H76.3809V19.2467H77.2558V16.727C77.2558 16.1321 77.6407 15.7471 78.2006 15.7471C78.7256 15.7471 79.0755 16.1321 79.0755 16.727V19.2467H79.9504V16.587C79.9504 15.5721 79.3555 14.9072 78.4106 14.9072Z" fill="#DEDEDE"/>
<path d="M81.1406 12.7725V19.2467H82.0155V12.7725H81.1406Z" fill="#DEDEDE"/>
<path d="M85.1648 14.9072C84.5699 14.9072 84.045 15.1172 83.625 15.5371C83.2051 15.9571 82.9951 16.482 82.9951 17.112C82.9951 17.7419 83.2051 18.2668 83.625 18.6868C84.045 19.1067 84.5349 19.3167 85.1648 19.3517C85.7598 19.3517 86.2847 19.1417 86.7047 18.7218C87.1246 18.3018 87.3346 17.7769 87.3346 17.1469C87.3346 16.517 87.1246 15.9921 86.7047 15.5721C86.2847 15.1172 85.7598 14.9072 85.1648 14.9072ZM85.1998 15.7471C85.5498 15.7471 85.8648 15.8871 86.1097 16.1671C86.3547 16.412 86.4597 16.762 86.4597 17.1469C86.4597 17.5319 86.3197 17.8819 86.1097 18.1268C85.8648 18.3718 85.5498 18.5118 85.1998 18.5118C84.8499 18.5118 84.5349 18.3718 84.2899 18.1268C84.045 17.8469 83.94 17.5319 83.94 17.1469C83.94 16.762 84.045 16.412 84.2899 16.1671C84.4999 15.8871 84.8149 15.7471 85.1998 15.7471Z" fill="#DEDEDE"/>
<path d="M89.9239 14.9072C89.189 14.9072 88.6291 15.2222 88.2092 15.8171L88.6991 16.342C89.0491 15.9221 89.434 15.7121 89.819 15.7121C90.3789 15.7121 90.6938 16.0271 90.6938 16.622V16.902H89.539C88.6291 16.902 88.0342 17.3919 88.0342 18.1268C88.0342 18.8617 88.5941 19.3517 89.469 19.3517C90.0289 19.3517 90.4489 19.1767 90.7638 18.7917V19.2817H91.5687V16.727C91.5687 15.5371 90.9038 14.9072 89.9239 14.9072ZM89.644 18.6518C89.224 18.6518 88.9441 18.4418 88.9441 18.0918C88.9441 17.7419 89.189 17.5669 89.679 17.5669H90.7288V17.6369C90.6939 18.2318 90.2389 18.6518 89.644 18.6518Z" fill="#DEDEDE"/>
<path d="M95.8733 15.5371C95.5583 15.1172 95.1034 14.9072 94.5084 14.9072C93.9485 14.9072 93.4586 15.1172 93.0736 15.5371C92.6887 15.9571 92.5137 16.482 92.5137 17.1119C92.5137 17.7419 92.6887 18.2668 93.0736 18.6867C93.4586 19.1067 93.9135 19.3167 94.5084 19.3167C95.1383 19.3167 95.6283 19.0717 95.9432 18.6168V19.2117H96.7481V12.7375H95.8733V15.5371ZM94.6834 18.5118C94.3334 18.5118 94.0185 18.3718 93.7735 18.1268C93.5285 17.8818 93.4236 17.5319 93.4236 17.1119C93.4236 16.692 93.5285 16.377 93.7735 16.1321C94.0185 15.8871 94.2985 15.7471 94.6834 15.7471C94.9984 15.7471 95.3133 15.8521 95.5583 16.0971C95.8033 16.342 95.9083 16.692 95.9083 17.1119C95.9083 18.0568 95.3483 18.5118 94.6834 18.5118Z" fill="#DEDEDE"/>
<path d="M102.243 14.9072C101.648 14.9072 101.123 15.1172 100.703 15.5371C100.283 15.9571 100.073 16.482 100.073 17.112C100.073 17.7419 100.283 18.2668 100.703 18.6868C101.123 19.1067 101.613 19.3167 102.243 19.3517C102.838 19.3517 103.363 19.1417 103.783 18.7218C104.203 18.3018 104.413 17.7769 104.413 17.1469C104.413 16.517 104.203 15.9921 103.783 15.5721C103.328 15.1172 102.838 14.9072 102.243 14.9072ZM102.243 15.7471C102.593 15.7471 102.908 15.8871 103.153 16.1671C103.398 16.412 103.503 16.762 103.503 17.1469C103.503 17.5319 103.363 17.8819 103.153 18.1268C102.908 18.3718 102.593 18.5118 102.243 18.5118C101.893 18.5118 101.578 18.3718 101.333 18.1268C101.088 17.8469 100.983 17.5319 100.983 17.1469C100.983 16.762 101.088 16.412 101.333 16.1671C101.578 15.8871 101.893 15.7471 102.243 15.7471Z" fill="#DEDEDE"/>
<path d="M107.422 14.9072C106.932 14.9072 106.512 15.0822 106.197 15.4322V15.0122H105.393V19.2467H106.267V16.727C106.267 16.1321 106.652 15.7471 107.212 15.7471C107.737 15.7471 108.087 16.1321 108.087 16.727V19.2467H108.962V16.587C108.962 15.5721 108.402 14.9072 107.422 14.9072Z" fill="#DEDEDE"/>
<path d="M114.387 18.5118C113.862 18.5118 113.582 18.3368 113.582 17.7769V15.7822H114.807V15.0123H113.582V13.8924H112.707V15.0123H112.042V15.7822H112.707V17.8469C112.707 18.8268 113.267 19.3167 114.212 19.3167C114.422 19.3167 114.667 19.2817 114.947 19.2117V18.4418C114.667 18.5118 114.492 18.5118 114.387 18.5118Z" fill="#DEDEDE"/>
<path d="M117.851 14.9073C117.361 14.9073 116.976 15.0822 116.661 15.4322V12.7725H115.786V19.2467H116.661V16.727C116.661 16.1321 117.046 15.7472 117.606 15.7472C118.131 15.7472 118.481 16.1321 118.481 16.727V19.2467H119.356V16.587C119.356 15.6072 118.796 14.9073 117.851 14.9073Z" fill="#DEDEDE"/>
<path d="M124.326 16.867C124.326 16.3071 124.151 15.8521 123.801 15.4672C123.451 15.0822 122.996 14.9072 122.471 14.9072C121.876 14.9072 121.386 15.1172 120.966 15.5721C120.546 15.9921 120.371 16.517 120.371 17.1469C120.371 17.7769 120.581 18.3018 121.001 18.7218C121.421 19.1417 121.946 19.3517 122.576 19.3517C123.206 19.3517 123.731 19.1417 124.186 18.6518L123.766 18.0218C123.416 18.3718 122.996 18.5118 122.576 18.5118C121.876 18.5118 121.351 18.0918 121.246 17.3919H124.291C124.291 17.2169 124.326 17.042 124.326 16.867ZM122.401 15.6771C122.996 15.6771 123.451 16.0971 123.451 16.727H121.246C121.351 16.0971 121.806 15.6771 122.401 15.6771Z" fill="#DEDEDE"/>
<path d="M67.9119 34.4698L63.3625 23.5862H62.8025L58.2881 34.4698H60.0379L60.7728 32.685H65.3922L66.1271 34.4698H67.9119ZM61.3677 31.2152L63.0825 26.7708L64.7623 31.2152H61.3677Z" fill="#DEDEDE"/>
<path d="M73.302 26.3159C72.1822 26.3159 71.2023 26.8058 70.6423 27.6457V26.5258H69.1025V37.4095H70.7473V33.525C71.3423 34.2949 72.2171 34.6448 73.302 34.6448C74.3869 34.6448 75.2968 34.2599 75.9967 33.455C76.6966 32.6501 77.0466 31.6702 77.0466 30.4803C77.0466 29.2905 76.6966 28.3106 75.9967 27.5057C75.2968 26.7008 74.3869 26.3159 73.302 26.3159ZM73.0221 33.07C72.3921 33.07 71.8322 32.86 71.3773 32.4051C70.9223 31.9502 70.7123 31.3202 70.7123 30.4453C70.7123 28.7306 71.7622 27.8557 73.0221 27.8557C73.687 27.8557 74.2469 28.1006 74.7018 28.5906C75.1568 29.0805 75.3668 29.7104 75.3668 30.4803C75.3668 31.2502 75.1568 31.8452 74.7018 32.3351C74.2469 32.825 73.687 33.07 73.0221 33.07Z" fill="#DEDEDE"/>
<path d="M82.7854 26.3159C81.6656 26.3159 80.6857 26.8058 80.1257 27.6457V26.5258H78.5859V37.4095H80.2307V33.525C80.8257 34.2949 81.7005 34.6448 82.7854 34.6448C83.8703 34.6448 84.7802 34.2599 85.4801 33.455C86.18 32.6501 86.5299 31.6702 86.5299 30.4803C86.5299 29.2905 86.18 28.3106 85.4801 27.5057C84.7802 26.7008 83.8703 26.3159 82.7854 26.3159ZM82.5404 33.07C81.9105 33.07 81.3506 32.86 80.8957 32.4051C80.4407 31.9502 80.2307 31.3202 80.2307 30.4453C80.2307 28.7306 81.2806 27.8557 82.5404 27.8557C83.2054 27.8557 83.7653 28.1006 84.2202 28.5906C84.6752 29.0805 84.8852 29.7104 84.8852 30.4803C84.8852 31.2502 84.6752 31.8452 84.2202 32.3351C83.7303 32.825 83.2054 33.07 82.5404 33.07Z" fill="#DEDEDE"/>
<path d="M95.3835 23.5862C94.4737 23.5862 93.7037 23.8661 93.0738 24.3911C92.4439 24.916 92.129 25.6159 92.129 26.4908C92.129 27.8556 93.0038 28.7305 94.5086 29.4654L95.6285 30.0254C96.7134 30.5503 97.1333 30.8653 97.1333 31.6352C97.1333 32.5451 96.4334 33.14 95.3485 33.14C94.2987 33.14 93.4238 32.5801 92.6539 31.4252L91.499 32.3351C92.3039 33.7699 93.7038 34.6448 95.3835 34.6448C96.3634 34.6448 97.2033 34.3648 97.8332 33.8049C98.4982 33.245 98.8131 32.4751 98.8131 31.5652C98.8131 30.1654 98.0082 29.3255 96.3634 28.5206L95.2086 27.9606C94.1587 27.4357 93.7737 27.1557 93.7737 26.4208C93.7737 25.5809 94.4736 25.126 95.3135 25.126C96.1884 25.126 96.9233 25.5809 97.4833 26.4208L98.6381 25.5109C98.0432 24.3561 96.8184 23.5862 95.3835 23.5862Z" fill="#DEDEDE"/>
<path d="M103.992 33.105C103.013 33.105 102.488 32.755 102.488 31.7401V27.9606H104.762V26.4908H102.488V24.3911H100.843V26.4908H99.583V27.9606H100.843V31.8451C100.843 33.6999 101.893 34.6098 103.643 34.6098C104.027 34.6098 104.482 34.5398 105.007 34.4348V33C104.552 33.07 104.237 33.105 103.992 33.105Z" fill="#DEDEDE"/>
<path d="M109.732 26.3159C108.612 26.3159 107.632 26.7358 106.862 27.5057C106.092 28.3106 105.707 29.2905 105.707 30.4453C105.707 31.6002 106.092 32.6151 106.862 33.385C107.632 34.1899 108.577 34.5748 109.732 34.6098C110.851 34.6098 111.796 34.1899 112.601 33.42C113.406 32.6151 113.791 31.6352 113.791 30.4453C113.791 29.2905 113.371 28.2756 112.601 27.5057C111.831 26.7358 110.851 26.3159 109.732 26.3159ZM109.767 27.8907C110.431 27.8907 110.991 28.1356 111.446 28.6606C111.901 29.1505 112.146 29.7454 112.146 30.5153C112.146 31.2502 111.901 31.8452 111.446 32.3701C110.991 32.86 110.431 33.105 109.767 33.105C109.067 33.105 108.507 32.86 108.087 32.3701C107.632 31.8802 107.422 31.2502 107.422 30.5153C107.422 29.7804 107.632 29.1505 108.087 28.6606C108.507 28.1356 109.067 27.8907 109.767 27.8907Z" fill="#DEDEDE"/>
<path d="M119.111 26.4208C118.166 26.4208 117.431 26.8057 116.871 27.5406V26.4908H115.331V34.4348H116.976V30.2003C116.976 28.8005 117.921 27.9956 119.216 27.9956H119.706V26.4908C119.566 26.4558 119.356 26.4208 119.111 26.4208Z" fill="#DEDEDE"/>
<path d="M127.755 29.9554C127.755 28.9055 127.405 28.0306 126.74 27.3307C126.075 26.6308 125.235 26.2808 124.22 26.2808C123.1 26.2808 122.156 26.7008 121.421 27.5057C120.651 28.3106 120.301 29.2904 120.301 30.4453C120.301 31.6352 120.686 32.615 121.456 33.4199C122.226 34.2248 123.205 34.6098 124.395 34.6098C125.55 34.6098 126.565 34.1898 127.44 33.3149L126.67 32.1601C125.97 32.79 125.235 33.105 124.43 33.105C123.1 33.105 122.156 32.3351 121.946 31.0052H127.65C127.685 30.6553 127.755 30.3053 127.755 29.9554ZM124.15 27.7506C125.27 27.7506 126.11 28.5205 126.11 29.7104H121.946C122.191 28.5205 123.065 27.7506 124.15 27.7506Z" fill="#DEDEDE"/>
<path d="M50.6944 24.5311C50.6594 21.4865 53.354 20.0166 53.459 19.9466C51.9542 17.8819 49.5745 17.6019 48.7696 17.5669C46.8099 17.357 44.8851 18.6868 43.8702 18.6868C42.8553 18.6868 41.2805 17.6019 39.6357 17.6369C37.501 17.6719 35.4713 18.8268 34.3864 20.6466C32.1117 24.3211 33.7915 29.7454 35.9962 32.72C37.0811 34.1899 38.3409 35.7997 40.0207 35.7647C41.6655 35.6947 42.2604 34.7848 44.2202 34.7848C46.1799 34.7848 46.7399 35.7647 48.4546 35.7297C50.2044 35.6947 51.3243 34.2599 52.3742 32.79C53.634 31.1103 54.1239 29.4655 54.1589 29.3955C54.0889 29.3605 50.7294 28.1706 50.6944 24.5311ZM47.4748 15.6422C48.3497 14.6273 48.9446 13.2275 48.7696 11.7927C47.5098 11.8277 45.9 12.5976 44.9901 13.6124C44.1852 14.4873 43.4503 15.9571 43.6602 17.322C45.0951 17.427 46.5649 16.6221 47.4748 15.6422Z" fill="#DEDEDE"/>
</svg>
