<svg width="161" height="51" viewBox="0 0 161 51" fill="none" xmlns="http://www.w3.org/2000/svg">
<path d="M25.5669 0.629028H135.453C149.032 0.629028 160.02 11.6177 160.02 25.196C160.02 38.7743 149.032 49.7629 135.453 49.7629H25.5669C11.9886 49.7629 1 38.7743 1 25.196C1 11.6527 11.9886 0.629028 25.5669 0.629028Z" stroke="#DEDEDE" stroke-width="0.963885"/>
<path d="M41.5605 24.706L29.627 13.5424C29.522 13.8224 29.417 14.1024 29.417 14.4873V35.0297C29.417 35.4147 29.522 35.6947 29.627 35.9746L41.5605 24.706Z" fill="#DEDEDE"/>
<path d="M42.96 24.706L46.9495 28.4155L51.3239 26.1058C52.7237 25.3709 52.7237 24.1461 51.3239 23.4112L46.8445 20.9965L42.96 24.706Z" fill="#DEDEDE"/>
<path d="M42.2607 24.0411L45.9352 20.5065L31.902 13.0875C31.307 12.8075 30.7121 12.7025 30.3271 12.9125L42.2607 24.0411Z" fill="#DEDEDE"/>
<path d="M42.2607 25.3359L30.3271 36.5695C30.7121 36.7445 31.307 36.6745 32.0069 36.3946L46.1102 28.9755L42.2607 25.3359Z" fill="#DEDEDE"/>
<path d="M61.2279 14.3123C60.423 14.3123 59.7231 14.5923 59.1631 15.1522C58.6032 15.7121 58.3232 16.4121 58.3232 17.2519C58.3232 18.0918 58.6032 18.7918 59.1631 19.3517C59.7231 19.9116 60.423 20.1916 61.2279 20.1916C62.3477 20.1916 63.2926 19.5967 63.7826 18.6868V17.077H61.1929V17.8819H62.8727V18.5118C62.4877 19.1067 61.9628 19.3867 61.2279 19.3867C60.6329 19.3867 60.143 19.1767 59.7581 18.7918C59.3731 18.3718 59.1981 17.8819 59.1981 17.2519C59.1981 16.657 59.3731 16.1321 59.7581 15.7471C60.108 15.3622 60.598 15.1522 61.1929 15.1522C61.8928 15.1522 62.4177 15.4672 62.8377 16.0621L63.4676 15.5022C62.9777 14.7323 62.2078 14.3123 61.2279 14.3123Z" fill="#DEDEDE"/>
<path d="M64.9023 14.4173V20.1216H68.6119V19.3167H65.7772V17.4969H67.842V16.692H65.7772V15.2222H68.5069V14.4173H64.9023Z" fill="#DEDEDE"/>
<path d="M69.0674 14.4173V15.2222H70.9222V20.1216H71.797V15.2222H73.6518V14.4173H69.0674Z" fill="#DEDEDE"/>
<path d="M76.416 14.4173V20.1216H77.2909V14.4173H76.416Z" fill="#DEDEDE"/>
<path d="M78.1309 14.4173V15.2222H79.9856V20.1216H80.8605V15.2222H82.7153V14.4173H78.1309Z" fill="#DEDEDE"/>
<path d="M87.9994 14.3123C87.1945 14.3123 86.4945 14.5923 85.9346 15.1522C85.3747 15.7121 85.0947 16.4121 85.0947 17.2519C85.0947 18.0918 85.3747 18.7918 85.9346 19.3517C86.4945 19.9116 87.1595 20.1916 87.9994 20.1916C88.8043 20.1916 89.4692 19.9116 90.0291 19.3517C90.589 18.7918 90.869 18.0918 90.869 17.2519C90.869 16.4121 90.589 15.7121 90.0291 15.1522C89.5042 14.5923 88.8043 14.3123 87.9994 14.3123ZM87.9994 15.1522C88.5593 15.1522 89.0492 15.3622 89.3992 15.7471C89.7841 16.1321 89.9591 16.657 89.9591 17.2519C89.9591 17.8819 89.7841 18.3718 89.3992 18.7568C89.0142 19.1417 88.5593 19.3517 87.9994 19.3517C87.4394 19.3517 86.9495 19.1417 86.5995 18.7568C86.2146 18.3368 86.0396 17.8469 86.0396 17.2519C86.0396 16.657 86.2146 16.1321 86.5995 15.7471C86.9845 15.3622 87.4394 15.1522 87.9994 15.1522Z" fill="#DEDEDE"/>
<path d="M95.5936 18.2668L92.2691 14.3123H91.9541V20.1216H92.829V16.2721L96.1886 20.2266H96.5035V14.4173H95.6286V18.2668H95.5936Z" fill="#DEDEDE"/>
<path d="M63.3976 24.3561C61.9628 24.3561 60.7729 24.846 59.7931 25.8609C58.8132 26.8408 58.3232 28.0656 58.3232 29.5354C58.3232 31.0053 58.8132 32.2301 59.7931 33.21C60.7729 34.1899 61.9628 34.6798 63.3976 34.6798C65.3224 34.6798 67.0371 33.6299 67.877 32.0551V29.2555H63.3626V30.6903H66.3372V31.7752C65.6723 32.79 64.7274 33.28 63.4676 33.28C62.4177 33.28 61.5778 32.93 60.9129 32.2301C60.248 31.5302 59.933 30.6203 59.933 29.5354C59.933 28.4856 60.248 27.6107 60.8779 26.9108C61.5078 26.2109 62.3477 25.8609 63.3626 25.8609C64.5525 25.8609 65.5323 26.3858 66.2323 27.4357L67.3521 26.4908C66.4422 25.056 65.1124 24.3561 63.3976 24.3561Z" fill="#DEDEDE"/>
<path d="M72.2864 26.9108C71.2365 26.9108 70.3266 27.2957 69.5917 28.0306C68.8568 28.7655 68.5068 29.7104 68.5068 30.7953C68.5068 31.8801 68.8568 32.825 69.5917 33.5599C70.3266 34.2948 71.2015 34.6798 72.2864 34.6798C73.3362 34.6798 74.2111 34.2948 74.981 33.5599C75.7159 32.79 76.1009 31.8801 76.1009 30.7953C76.1009 29.7104 75.7159 28.7655 74.981 28.0306C74.2461 27.2957 73.3362 26.9108 72.2864 26.9108ZM72.3214 28.3806C72.9513 28.3806 73.4762 28.6255 73.8962 29.0805C74.3161 29.5354 74.5261 30.0954 74.5261 30.7953C74.5261 31.4602 74.3161 32.0551 73.8962 32.5101C73.4762 32.965 72.9513 33.175 72.3214 33.175C71.6914 33.175 71.1665 32.965 70.7466 32.5101C70.3266 32.0551 70.1166 31.4602 70.1166 30.7953C70.1166 30.0954 70.3266 29.5354 70.7466 29.0805C71.1315 28.5906 71.6564 28.3806 72.3214 28.3806Z" fill="#DEDEDE"/>
<path d="M80.4407 26.9108C79.3908 26.9108 78.4809 27.2957 77.746 28.0306C77.0111 28.7655 76.6611 29.7104 76.6611 30.7953C76.6611 31.8801 77.0111 32.825 77.746 33.5599C78.4809 34.2948 79.3558 34.6798 80.4407 34.6798C81.4905 34.6798 82.3654 34.2948 83.1353 33.5599C83.8702 32.79 84.2552 31.8801 84.2552 30.7953C84.2552 29.7104 83.8702 28.7655 83.1353 28.0306C82.4004 27.2957 81.4905 26.9108 80.4407 26.9108ZM80.4757 28.3806C81.1056 28.3806 81.6305 28.6255 82.0505 29.0805C82.4704 29.5354 82.6804 30.0954 82.6804 30.7953C82.6804 31.4602 82.4704 32.0551 82.0505 32.5101C81.6305 32.965 81.1056 33.175 80.4757 33.175C79.8457 33.175 79.3208 32.965 78.9009 32.5101C78.4809 32.0551 78.2709 31.4602 78.2709 30.7953C78.2709 30.0954 78.4809 29.5354 78.9009 29.0805C79.2858 28.5906 79.8107 28.3806 80.4757 28.3806Z" fill="#DEDEDE"/>
<path d="M90.9042 28.1356C90.3442 27.3307 89.5043 26.9108 88.3845 26.9108C87.3696 26.9108 86.5647 27.2607 85.8998 27.9606C85.2349 28.6605 84.9199 29.5354 84.9199 30.6553C84.9199 31.7402 85.2699 32.65 85.8998 33.35C86.5647 34.0499 87.3696 34.3998 88.3845 34.3998C89.4344 34.3998 90.2043 34.0499 90.7992 33.35V33.8749C90.7992 35.2747 89.9593 36.0096 88.6644 36.0096C87.8246 36.0096 86.9847 35.6597 86.1448 34.9598L85.3049 36.0796C86.2498 37.0245 87.4046 37.4794 88.7344 37.4794C90.9042 37.4794 92.304 36.1496 92.304 33.8049V27.1557H90.9042V28.1356ZM88.6295 32.965C87.9995 32.965 87.5096 32.755 87.0547 32.3351C86.6347 31.8801 86.4247 31.3202 86.4247 30.6553C86.4247 29.9904 86.6347 29.4304 87.0547 28.9755C87.4746 28.5556 87.9995 28.3456 88.6295 28.3456C89.8193 28.3456 90.7992 29.1155 90.7992 30.6203C90.7992 31.3902 90.5892 31.9501 90.1693 32.3701C89.7143 32.755 89.2244 32.965 88.6295 32.965Z" fill="#DEDEDE"/>
<path d="M93.7744 23.1662V34.5048H95.3142V23.1662H93.7744Z" fill="#DEDEDE"/>
<path d="M103.363 30.3053C103.363 29.3254 103.048 28.5205 102.418 27.8556C101.788 27.1907 101.018 26.8757 100.073 26.8757C99.0231 26.8757 98.1482 27.2607 97.4483 27.9956C96.7484 28.7305 96.3984 29.6754 96.3984 30.7602C96.3984 31.8801 96.7484 32.79 97.4833 33.5249C98.2182 34.2598 99.1281 34.6448 100.248 34.6448C101.333 34.6448 102.278 34.2598 103.118 33.4549L102.383 32.3701C101.753 32.965 101.053 33.2449 100.283 33.2449C99.0581 33.2449 98.1482 32.51 97.9382 31.2852H103.258C103.328 30.9702 103.363 30.6203 103.363 30.3053ZM100.003 28.2756C101.053 28.2756 101.823 28.9755 101.823 30.0953H97.9382C98.1832 28.9755 98.9881 28.2756 100.003 28.2756Z" fill="#DEDEDE"/>
<path d="M107.842 24.5311V34.5048H109.382V30.6553H111.341C112.321 30.6553 113.091 30.3753 113.721 29.8154C114.316 29.2555 114.631 28.4856 114.631 27.5757C114.631 26.6658 114.316 25.9309 113.721 25.371C113.126 24.811 112.321 24.5311 111.341 24.5311H107.842ZM111.341 25.9309C112.426 25.9309 113.056 26.5958 113.056 27.5757C113.056 28.5556 112.426 29.2205 111.341 29.2205H109.417V25.9309H111.341Z" fill="#DEDEDE"/>
<path d="M115.506 23.1662V34.5048H117.046V23.1662H115.506Z" fill="#DEDEDE"/>
<path d="M121.281 26.9108C119.986 26.9108 118.971 27.4357 118.271 28.4856L119.146 29.4304C119.741 28.6955 120.406 28.3106 121.141 28.3106C122.121 28.3106 122.681 28.8705 122.681 29.8854V30.3753H120.651C119.041 30.3753 118.026 31.2152 118.026 32.5101C118.026 33.8049 119.006 34.6448 120.511 34.6448C121.491 34.6448 122.261 34.2948 122.786 33.6299V34.4698H124.221V29.9904C124.221 28.0306 123.066 26.9108 121.281 26.9108ZM120.826 33.4549C120.091 33.4549 119.566 33.105 119.566 32.4751C119.566 31.8801 119.986 31.5652 120.826 31.5652H122.646V31.7052C122.681 32.72 121.841 33.4549 120.826 33.4549Z" fill="#DEDEDE"/>
<path d="M128.49 32.5101L126.425 27.0858H124.78L127.65 34.1899L127.37 34.8898C127.02 35.7297 126.53 35.9746 125.795 35.9746C125.69 35.9746 125.41 35.9746 124.955 35.9046V37.2345C125.34 37.3395 125.76 37.3745 126.145 37.3745C127.37 37.3745 128.175 36.7445 128.77 35.3447L132.269 27.0858H130.625L128.49 32.5101Z" fill="#DEDEDE"/>
</svg>
