<svg width="161" height="51" viewBox="0 0 161 51" fill="none" xmlns="http://www.w3.org/2000/svg">
<path d="M25.5464 0.628906H135.433C149.011 0.628906 160 11.6175 160 25.1958C160 38.7741 149.011 49.7628 135.433 49.7628H25.5464C11.9681 49.7628 0.979492 38.7741 0.979492 25.1958C0.979492 11.6525 11.9681 0.628906 25.5464 0.628906Z" fill="#191C2E" stroke="#191C2E" stroke-width="0.963885"/>
<path d="M41.54 24.7061L29.6065 13.5425C29.5015 13.8224 29.3965 14.1024 29.3965 14.4874V35.0298C29.3965 35.4147 29.5015 35.6947 29.6065 35.9747L41.54 24.7061Z" fill="#DEDEDE"/>
<path d="M42.9395 24.7056L46.929 28.4152L51.3034 26.1054C52.7032 25.3705 52.7032 24.1457 51.3034 23.4108L46.824 20.9961L42.9395 24.7056Z" fill="#DEDEDE"/>
<path d="M42.2401 24.0412L45.9147 20.5067L31.8814 13.0876C31.2865 12.8076 30.6916 12.7026 30.3066 12.9126L42.2401 24.0412Z" fill="#DEDEDE"/>
<path d="M42.2401 25.3359L30.3066 36.5695C30.6916 36.7445 31.2865 36.6745 31.9864 36.3946L46.0897 28.9755L42.2401 25.3359Z" fill="#DEDEDE"/>
<path d="M61.2074 14.312C60.4025 14.312 59.7026 14.592 59.1426 15.1519C58.5827 15.7118 58.3027 16.4117 58.3027 17.2516C58.3027 18.0915 58.5827 18.7915 59.1426 19.3514C59.7026 19.9113 60.4025 20.1913 61.2074 20.1913C62.3272 20.1913 63.2721 19.5964 63.762 18.6865V17.0767H61.1724V17.8816H62.8522V18.5115C62.4672 19.1064 61.9423 19.3864 61.2074 19.3864C60.6124 19.3864 60.1225 19.1764 59.7376 18.7914C59.3526 18.3715 59.1776 17.8816 59.1776 17.2516C59.1776 16.6567 59.3526 16.1318 59.7376 15.7468C60.0875 15.3619 60.5774 15.1519 61.1724 15.1519C61.8723 15.1519 62.3972 15.4669 62.8172 16.0618L63.4471 15.5019C62.9572 14.732 62.1872 14.312 61.2074 14.312Z" fill="#DEDEDE"/>
<path d="M64.8818 14.417V20.1213H68.5914V19.3164H65.7567V17.4966H67.8215V16.6917H65.7567V15.2219H68.4864V14.417H64.8818Z" fill="#DEDEDE"/>
<path d="M69.0469 14.417V15.2219H70.9016V20.1213H71.7765V15.2219H73.6313V14.417H69.0469Z" fill="#DEDEDE"/>
<path d="M76.3955 14.417V20.1213H77.2704V14.417H76.3955Z" fill="#DEDEDE"/>
<path d="M78.1104 14.417V15.2219H79.9651V20.1213H80.84V15.2219H82.6948V14.417H78.1104Z" fill="#DEDEDE"/>
<path d="M87.9789 14.312C87.174 14.312 86.474 14.592 85.9141 15.1519C85.3542 15.7118 85.0742 16.4117 85.0742 17.2516C85.0742 18.0915 85.3542 18.7915 85.9141 19.3514C86.474 19.9113 87.139 20.1913 87.9789 20.1913C88.7838 20.1913 89.4487 19.9113 90.0086 19.3514C90.5685 18.7915 90.8485 18.0915 90.8485 17.2516C90.8485 16.4117 90.5685 15.7118 90.0086 15.1519C89.4837 14.592 88.7838 14.312 87.9789 14.312ZM87.9789 15.1519C88.5388 15.1519 89.0287 15.3619 89.3787 15.7468C89.7636 16.1318 89.9386 16.6567 89.9386 17.2516C89.9386 17.8816 89.7636 18.3715 89.3787 18.7565C88.9937 19.1414 88.5388 19.3514 87.9789 19.3514C87.4189 19.3514 86.929 19.1414 86.579 18.7565C86.1941 18.3365 86.0191 17.8466 86.0191 17.2516C86.0191 16.6567 86.1941 16.1318 86.579 15.7468C86.964 15.3619 87.4189 15.1519 87.9789 15.1519Z" fill="#DEDEDE"/>
<path d="M95.5731 18.2665L92.2486 14.312H91.9336V20.1213H92.8085V16.2718L96.1681 20.2263H96.483V14.417H95.6081V18.2665H95.5731Z" fill="#DEDEDE"/>
<path d="M63.3771 24.356C61.9423 24.356 60.7524 24.8459 59.7725 25.8608C58.7927 26.8407 58.3027 28.0655 58.3027 29.5353C58.3027 31.0051 58.7927 32.23 59.7725 33.2099C60.7524 34.1897 61.9423 34.6797 63.3771 34.6797C65.3019 34.6797 67.0166 33.6298 67.8565 32.055V29.2553H63.3421V30.6902H66.3167V31.775C65.6518 32.7899 64.7069 33.2798 63.4471 33.2798C62.3972 33.2798 61.5573 32.9299 60.8924 32.23C60.2275 31.5301 59.9125 30.6202 59.9125 29.5353C59.9125 28.4854 60.2275 27.6106 60.8574 26.9106C61.4873 26.2107 62.3272 25.8608 63.3421 25.8608C64.532 25.8608 65.5118 26.3857 66.2117 27.4356L67.3316 26.4907C66.4217 25.0559 65.0919 24.356 63.3771 24.356Z" fill="#DEDEDE"/>
<path d="M72.2659 26.9106C71.216 26.9106 70.3061 27.2956 69.5712 28.0305C68.8363 28.7654 68.4863 29.7103 68.4863 30.7952C68.4863 31.88 68.8363 32.8249 69.5712 33.5598C70.3061 34.2947 71.181 34.6797 72.2659 34.6797C73.3157 34.6797 74.1906 34.2947 74.9605 33.5598C75.6954 32.7899 76.0804 31.88 76.0804 30.7952C76.0804 29.7103 75.6954 28.7654 74.9605 28.0305C74.2256 27.2956 73.3157 26.9106 72.2659 26.9106ZM72.3008 28.3805C72.9308 28.3805 73.4557 28.6254 73.8757 29.0804C74.2956 29.5353 74.5056 30.0952 74.5056 30.7952C74.5056 31.4601 74.2956 32.055 73.8757 32.5099C73.4557 32.9649 72.9308 33.1749 72.3008 33.1749C71.6709 33.1749 71.146 32.9649 70.726 32.5099C70.3061 32.055 70.0961 31.4601 70.0961 30.7952C70.0961 30.0952 70.3061 29.5353 70.726 29.0804C71.111 28.5904 71.6359 28.3805 72.3008 28.3805Z" fill="#DEDEDE"/>
<path d="M80.4201 26.9106C79.3703 26.9106 78.4604 27.2956 77.7255 28.0305C76.9906 28.7654 76.6406 29.7103 76.6406 30.7952C76.6406 31.88 76.9906 32.8249 77.7255 33.5598C78.4604 34.2947 79.3353 34.6797 80.4201 34.6797C81.47 34.6797 82.3449 34.2947 83.1148 33.5598C83.8497 32.7899 84.2347 31.88 84.2347 30.7952C84.2347 29.7103 83.8497 28.7654 83.1148 28.0305C82.3799 27.2956 81.47 26.9106 80.4201 26.9106ZM80.4551 28.3805C81.0851 28.3805 81.61 28.6254 82.0299 29.0804C82.4499 29.5353 82.6599 30.0952 82.6599 30.7952C82.6599 31.4601 82.4499 32.055 82.0299 32.5099C81.61 32.9649 81.0851 33.1749 80.4551 33.1749C79.8252 33.1749 79.3003 32.9649 78.8803 32.5099C78.4604 32.055 78.2504 31.4601 78.2504 30.7952C78.2504 30.0952 78.4604 29.5353 78.8803 29.0804C79.2653 28.5904 79.7902 28.3805 80.4551 28.3805Z" fill="#DEDEDE"/>
<path d="M90.8837 28.1355C90.3237 27.3306 89.4838 26.9106 88.364 26.9106C87.3491 26.9106 86.5442 27.2606 85.8793 27.9605C85.2144 28.6604 84.8994 29.5353 84.8994 30.6552C84.8994 31.74 85.2494 32.6499 85.8793 33.3498C86.5442 34.0498 87.3491 34.3997 88.364 34.3997C89.4138 34.3997 90.1837 34.0498 90.7787 33.3498V33.8748C90.7787 35.2746 89.9388 36.0095 88.6439 36.0095C87.804 36.0095 86.9642 35.6596 86.1243 34.9596L85.2844 36.0795C86.2293 37.0244 87.3841 37.4793 88.7139 37.4793C90.8837 37.4793 92.2835 36.1495 92.2835 33.8048V27.1556H90.8837V28.1355ZM88.609 32.9649C87.979 32.9649 87.4891 32.7549 87.0341 32.335C86.6142 31.88 86.4042 31.3201 86.4042 30.6552C86.4042 29.9903 86.6142 29.4303 87.0341 28.9754C87.4541 28.5554 87.979 28.3455 88.609 28.3455C89.7988 28.3455 90.7787 29.1154 90.7787 30.6202C90.7787 31.3901 90.5687 31.95 90.1488 32.37C89.6938 32.7549 89.2039 32.9649 88.609 32.9649Z" fill="#DEDEDE"/>
<path d="M93.7539 23.166V34.5046H95.2937V23.166H93.7539Z" fill="#DEDEDE"/>
<path d="M103.342 30.3051C103.342 29.3252 103.027 28.5203 102.397 27.8554C101.767 27.1904 100.997 26.8755 100.052 26.8755C99.0026 26.8755 98.1277 27.2604 97.4278 27.9954C96.7279 28.7303 96.3779 29.6751 96.3779 30.76C96.3779 31.8799 96.7279 32.7897 97.4628 33.5247C98.1977 34.2596 99.1076 34.6445 100.227 34.6445C101.312 34.6445 102.257 34.2596 103.097 33.4547L102.362 32.3698C101.732 32.9647 101.032 33.2447 100.262 33.2447C99.0376 33.2447 98.1277 32.5098 97.9177 31.2849H103.237C103.307 30.97 103.342 30.62 103.342 30.3051ZM99.9825 28.2753C101.032 28.2753 101.802 28.9752 101.802 30.0951H97.9177C98.1627 28.9752 98.9676 28.2753 99.9825 28.2753Z" fill="#DEDEDE"/>
<path d="M107.821 24.5308V34.5045H109.361V30.655H111.321C112.301 30.655 113.071 30.375 113.701 29.8151C114.295 29.2552 114.61 28.4853 114.61 27.5754C114.61 26.6655 114.295 25.9306 113.701 25.3707C113.106 24.8107 112.301 24.5308 111.321 24.5308H107.821ZM111.321 25.9306C112.406 25.9306 113.036 26.5955 113.036 27.5754C113.036 28.5553 112.406 29.2202 111.321 29.2202H109.396V25.9306H111.321Z" fill="#DEDEDE"/>
<path d="M115.485 23.166V34.5046H117.025V23.166H115.485Z" fill="#DEDEDE"/>
<path d="M121.26 26.9106C119.966 26.9106 118.951 27.4356 118.251 28.4854L119.126 29.4303C119.721 28.6954 120.386 28.3105 121.12 28.3105C122.1 28.3105 122.66 28.8704 122.66 29.8853V30.3752H120.631C119.021 30.3752 118.006 31.2151 118.006 32.5099C118.006 33.8048 118.986 34.6447 120.491 34.6447C121.47 34.6447 122.24 34.2947 122.765 33.6298V34.4697H124.2V29.9903C124.2 28.0305 123.045 26.9106 121.26 26.9106ZM120.806 33.4548C120.071 33.4548 119.546 33.1049 119.546 32.4749C119.546 31.88 119.966 31.5651 120.806 31.5651H122.625V31.705C122.66 32.7199 121.82 33.4548 120.806 33.4548Z" fill="#DEDEDE"/>
<path d="M128.469 32.5098L126.405 27.0854H124.76L127.629 34.1896L127.349 34.8895C126.999 35.7294 126.51 35.9743 125.775 35.9743C125.67 35.9743 125.39 35.9743 124.935 35.9043V37.2342C125.32 37.3392 125.74 37.3742 126.125 37.3742C127.349 37.3742 128.154 36.7442 128.749 35.3444L132.249 27.0854H130.604L128.469 32.5098Z" fill="#DEDEDE"/>
</svg>
