<svg width="30" height="29" viewBox="0 0 30 29" fill="none" xmlns="http://www.w3.org/2000/svg">
<path d="M3.63741 25.0465C2.87748 25.0465 2.23426 24.7832 1.70775 24.2567C1.18124 23.7302 0.917982 23.087 0.917982 22.327V5.20115C0.917982 4.451 1.18613 3.81016 1.72242 3.27864C2.25845 2.74736 2.90155 2.48172 3.6517 2.48172H3.7822L11.3034 10.0033H3.17446V22.327C3.17446 22.4622 3.21783 22.5731 3.30458 22.6599C3.39133 22.7466 3.50227 22.79 3.63741 22.79H24.0901L26.3466 25.0465H3.63741ZM28.8866 23.6087L27.2435 21.9656V10.0033H15.5764L8.05484 2.48172H10.4328L12.5245 6.64191C12.7 6.99292 12.9508 7.26482 13.2767 7.45763C13.6026 7.65043 13.9536 7.74683 14.3297 7.74683C15.0819 7.74683 15.6546 7.43105 16.048 6.79949C16.4414 6.16793 16.4626 5.51367 16.1116 4.83673L14.9457 2.48172H18.637L20.7054 6.61859C20.8809 6.9696 21.1316 7.24539 21.4575 7.44597C21.7835 7.64654 22.1345 7.74683 22.5106 7.74683C23.2627 7.74683 23.8394 7.42717 24.2405 6.78783C24.6417 6.1485 24.6668 5.49036 24.3158 4.81341L23.1499 2.48172H26.7806C27.5405 2.48172 28.1837 2.74498 28.7102 3.27149C29.2367 3.798 29.5 4.44122 29.5 5.20115V22.0378C29.5 22.356 29.4484 22.6472 29.3451 22.9115C29.242 23.1757 29.0892 23.4081 28.8866 23.6087ZM26.2138 28.107L0.842766 2.75927C0.619125 2.53563 0.504922 2.26999 0.500158 1.96236C0.495144 1.65473 0.609347 1.38432 0.842766 1.15116C1.07619 0.917735 1.34433 0.801025 1.6472 0.801025C1.94982 0.801025 2.21784 0.917735 2.45126 1.15116L27.8219 26.5218C28.0458 26.7455 28.1602 27.0072 28.1649 27.3071C28.1697 27.6072 28.0554 27.8738 27.8219 28.107C27.5888 28.3404 27.3207 28.4571 27.0179 28.4571C26.715 28.4571 26.447 28.3404 26.2138 28.107Z" fill="#F7F7F7"/>
</svg>
