<svg width="30" height="24" viewBox="0 0 30 24" fill="none" xmlns="http://www.w3.org/2000/svg">
<path d="M18.182 23.1518C16.7182 23.1518 15.4652 22.6306 14.423 21.5881C13.3805 20.5459 12.8593 19.2929 12.8593 17.8291C12.8593 16.3654 13.3805 15.1124 14.423 14.0701C15.4652 13.0276 16.7182 12.5064 18.182 12.5064C18.7649 12.5064 19.3109 12.5932 19.8199 12.7668C20.3288 12.9402 20.7967 13.2005 21.2235 13.5477V1.48073C21.2235 1.09141 21.3558 0.764948 21.6205 0.501346C21.8851 0.237998 22.2129 0.106323 22.604 0.106323H28.1267C28.5178 0.106323 28.8445 0.237998 29.1069 0.501346C29.369 0.764948 29.5 1.09141 29.5 1.48073V2.76769C29.5 3.15701 29.3683 3.48347 29.105 3.74707C28.8414 4.01042 28.5149 4.14209 28.1256 4.14209H23.5047V17.8291C23.5047 19.2929 22.9836 20.5459 21.9413 21.5881C20.8989 22.6306 19.6457 23.1518 18.182 23.1518ZM7.29966 6.90877C6.02449 8.18394 4.99213 9.64719 4.20259 11.2985C3.4128 12.9501 2.94098 14.7166 2.78713 16.598C2.75595 16.9313 2.631 17.2198 2.41226 17.4634C2.19377 17.7072 1.92295 17.8291 1.59978 17.8291C1.26622 17.8291 0.992737 17.7009 0.779321 17.4444C0.565905 17.1881 0.474785 16.8933 0.505961 16.56C0.669698 14.3549 1.20679 12.293 2.11723 10.3742C3.02792 8.45578 4.21337 6.76645 5.67357 5.30625C7.13402 3.84579 8.82108 2.66276 10.7347 1.75713C12.6484 0.851507 14.7078 0.316826 16.9129 0.153089C17.2462 0.121913 17.5411 0.213033 17.7976 0.426449C18.0539 0.639865 18.182 0.910817 18.182 1.23931C18.182 1.56805 18.0602 1.84153 17.8166 2.05976C17.5728 2.27825 17.2842 2.40308 16.9509 2.43426C15.0695 2.58811 13.3093 3.05359 11.6704 3.83071C10.0317 4.60758 8.57484 5.6336 7.29966 6.90877ZM11.6689 11.2928C10.9612 12.0005 10.3744 12.8129 9.90856 13.7302C9.44244 14.6478 9.14792 15.632 9.02499 16.6828C8.96796 17.0159 8.8302 17.2902 8.61172 17.5059C8.39323 17.7214 8.12241 17.8291 7.79924 17.8291C7.47607 17.8291 7.20918 17.7072 6.99855 17.4634C6.78792 17.2198 6.69819 16.9362 6.72937 16.6125C6.86776 15.2537 7.22502 13.9898 7.80114 12.8208C8.37726 11.6518 9.1246 10.6082 10.0431 9.6899C10.9614 8.7716 12.005 8.02439 13.1737 7.44827C14.3426 6.87215 15.6065 6.51489 16.9654 6.3765C17.289 6.34532 17.5728 6.43467 17.8166 6.64454C18.0602 6.8544 18.182 7.12155 18.182 7.44599C18.182 7.77017 18.0743 8.04137 17.8588 8.2596C17.6431 8.47783 17.3687 8.61534 17.0357 8.67212C15.9848 8.79504 15.0046 9.08564 14.0949 9.5439C13.1855 10.0019 12.3768 10.5849 11.6689 11.2928Z" fill="#F7F7F7"/>
</svg>
