<svg width="29" height="29" viewBox="0 0 29 29" fill="none" xmlns="http://www.w3.org/2000/svg">
<path d="M7.86784 23.9471H6.20767C5.61831 23.9471 5.11947 23.7429 4.71113 23.3346C4.3028 22.9263 4.09863 22.4274 4.09863 21.8381V14.0304C4.09863 12.6544 4.3589 11.3651 4.87942 10.1626C5.39995 8.96001 6.10744 7.91146 7.00188 7.01702C7.89633 6.12257 8.94487 5.41509 10.1475 4.89456C11.35 4.37403 12.6392 4.11377 14.0153 4.11377C15.3914 4.11377 16.6806 4.37403 17.8831 4.89456C19.0857 5.41509 20.1343 6.12257 21.0287 7.01702C21.9232 7.91146 22.6306 8.96001 23.1512 10.1626C23.6717 11.3651 23.932 12.6544 23.932 14.0304V21.8381C23.932 22.4274 23.7278 22.9263 23.3195 23.3346C22.9111 23.7429 22.4123 23.9471 21.8229 23.9471H20.1628C19.581 23.9471 19.0841 23.7411 18.672 23.3291C18.2598 22.9168 18.0537 22.4198 18.0537 21.8381V17.7996C18.0537 17.2179 18.2598 16.721 18.672 16.3089C19.0841 15.8967 19.581 15.6906 20.1628 15.6906H22.182V14.0304C22.182 11.7554 21.3896 9.82557 19.8049 8.24085C18.2202 6.65613 16.2903 5.86377 14.0153 5.86377C11.7403 5.86377 9.81044 6.65613 8.22572 8.24085C6.64099 9.82557 5.84863 11.7554 5.84863 14.0304V15.6906H7.86784C8.44962 15.6906 8.94652 15.8967 9.35855 16.3089C9.77077 16.721 9.97688 17.2179 9.97688 17.7996V21.8381C9.97688 22.4198 9.77077 22.9168 9.35855 23.3291C8.94652 23.7411 8.44962 23.9471 7.86784 23.9471ZM7.86784 17.4406H5.84863V21.8381C5.84863 21.9279 5.88606 22.0101 5.96092 22.0848C6.03559 22.1597 6.11784 22.1971 6.20767 22.1971H7.86784C7.97245 22.1971 8.05849 22.1635 8.12597 22.0962C8.19324 22.0289 8.22688 21.9429 8.22688 21.8381V17.7996C8.22688 17.695 8.19324 17.609 8.12597 17.5415C8.05849 17.4742 7.97245 17.4406 7.86784 17.4406ZM19.8037 17.7996V21.8381C19.8037 21.9429 19.8374 22.0289 19.9046 22.0962C19.9721 22.1635 20.0581 22.1971 20.1628 22.1971H21.8229C21.9128 22.1971 21.995 22.1597 22.0697 22.0848C22.1445 22.0101 22.182 21.9279 22.182 21.8381V17.4406H20.1628C20.0581 17.4406 19.9721 17.4742 19.9046 17.5415C19.8374 17.609 19.8037 17.695 19.8037 17.7996ZM7.86784 17.4406H8.22688H5.84863H7.86784Z" fill="#23273B"/>
</svg>
