<svg width="30" height="25" viewBox="0 0 30 25" fill="none" xmlns="http://www.w3.org/2000/svg">
<path d="M24.7272 24.3294L13.6402 13.1754C12.712 13.2712 11.8158 13.4908 10.9516 13.8344C10.0876 14.178 9.30935 14.6242 8.6169 15.1731C8.27002 15.4157 7.88802 15.5426 7.4709 15.5537C7.05379 15.5648 6.70335 15.4216 6.41957 15.1241C6.12224 14.8267 5.98802 14.4653 6.0169 14.0397C6.04602 13.614 6.22724 13.273 6.56057 13.0167C7.21702 12.485 7.93968 12.0186 8.72857 11.6177C9.51746 11.2168 10.3359 10.9173 11.1839 10.7191L7.2349 6.7704C6.52046 7.08995 5.79268 7.48184 5.05157 7.94607C4.31046 8.41007 3.61179 8.91907 2.95557 9.47307C2.62224 9.74307 2.24479 9.88229 1.82324 9.89073C1.4019 9.8994 1.04935 9.75496 0.765571 9.4574C0.468237 9.16007 0.330682 8.80418 0.352904 8.38973C0.375126 7.97507 0.548682 7.63273 0.873571 7.36273C1.51624 6.79184 2.18924 6.26529 2.89257 5.78306C3.59613 5.30106 4.30513 4.89173 5.01957 4.55507L2.7939 2.3294C2.60924 2.14473 2.51479 1.91262 2.51057 1.63306C2.50635 1.35373 2.60079 1.11751 2.7939 0.924398C2.98702 0.731064 3.22124 0.634399 3.49657 0.634399C3.77168 0.634399 4.0059 0.731064 4.19924 0.924398L26.1656 22.8907C26.3725 23.0976 26.4759 23.3374 26.4759 23.6101C26.4759 23.8827 26.3725 24.1225 26.1656 24.3294C25.9589 24.5138 25.7192 24.6116 25.4466 24.6227C25.1739 24.6338 24.9341 24.5361 24.7272 24.3294ZM14.9939 23.3344C14.2401 23.3344 13.6029 23.0707 13.0822 22.5434C12.5618 22.0161 12.3016 21.3823 12.3016 20.6421C12.3016 19.8883 12.5618 19.2512 13.0822 18.7307C13.6029 18.2103 14.2401 17.9501 14.9939 17.9501C15.7477 17.9501 16.3849 18.2103 16.9056 18.7307C17.426 19.2512 17.6862 19.8883 17.6862 20.6421C17.6862 21.3823 17.426 22.0161 16.9056 22.5434C16.3849 23.0707 15.7477 23.3344 14.9939 23.3344ZM23.7349 14.9114C23.482 15.1643 23.1871 15.2874 22.8502 15.2807C22.5136 15.2738 22.2187 15.1438 21.9656 14.8907L21.6452 14.5704L21.3246 14.2497L19.1506 12.0757C18.9128 11.838 18.8721 11.5935 19.0286 11.3424C19.185 11.0911 19.4341 11.021 19.7759 11.1321C20.4768 11.3423 21.1448 11.6162 21.7799 11.9537C22.4148 12.2913 23.0143 12.6832 23.5786 13.1294C23.8675 13.355 24.029 13.6451 24.0632 13.9997C24.0972 14.3546 23.9878 14.6585 23.7349 14.9114ZM29.2349 9.4574C28.9427 9.7634 28.5871 9.91129 28.1682 9.90107C27.7496 9.89084 27.3692 9.7464 27.0272 9.46773C25.4017 8.07129 23.5645 6.98629 21.5156 6.21273C19.4669 5.43918 17.293 5.0524 14.9939 5.0524C14.5272 5.0524 14.0708 5.06907 13.6246 5.1024C13.1786 5.13573 12.7461 5.18573 12.3272 5.2524C11.917 5.32418 11.5452 5.2374 11.2119 4.99207C10.8786 4.74673 10.676 4.41895 10.6042 4.00873C10.5325 3.59851 10.6226 3.22673 10.8746 2.8934C11.1268 2.56006 11.458 2.35751 11.8682 2.28573C12.3418 2.21395 12.8379 2.1614 13.3566 2.12807C13.8755 2.09473 14.4212 2.07807 14.9939 2.07807C17.7203 2.07807 20.2815 2.54351 22.6772 3.4744C25.073 4.40506 27.2187 5.69007 29.1142 7.3294C29.4476 7.61318 29.6254 7.9644 29.6476 8.38307C29.6698 8.80195 29.5322 9.16007 29.2349 9.4574Z" fill="#F7F7F7"/>
</svg>
