<svg width="29" height="27" viewBox="0 0 29 27" fill="none" xmlns="http://www.w3.org/2000/svg">
<path d="M0 22.7198V20.5943C0 19.8054 0.214278 19.0748 0.642834 18.4024C1.07139 17.73 1.64414 17.2131 2.36108 16.8517C3.9534 16.0711 5.55981 15.4856 7.18032 15.0952C8.80083 14.7048 10.4352 14.5096 12.0833 14.5096C12.9426 14.5096 13.7962 14.5622 14.6442 14.6674C15.4919 14.7727 16.3423 14.9338 17.1954 15.1508L15.1787 17.1925C14.6494 17.1165 14.1335 17.0531 13.6308 17.0023C13.1281 16.9516 12.6123 16.9262 12.0833 16.9262C10.6145 16.9262 9.15876 17.1022 7.71601 17.4543C6.27353 17.8066 4.85817 18.3245 3.46993 19.0082C3.14583 19.1838 2.88926 19.4104 2.70022 19.6881C2.51118 19.966 2.41667 20.2681 2.41667 20.5943V21.7596H11.9593V24.1762H1.45644C1.04373 24.1762 0.697879 24.0366 0.418889 23.7573C0.139629 23.4783 0 23.1325 0 22.7198ZM15.4916 24.6406V23.0452C15.4916 22.6524 15.5711 22.2779 15.7301 21.9219C15.889 21.5658 16.1008 21.2555 16.3653 20.9911L24.238 13.1337C24.4383 12.9334 24.6546 12.7924 24.8868 12.7107C25.1191 12.6294 25.3514 12.5887 25.5836 12.5887C25.8369 12.5887 26.0819 12.6361 26.3187 12.7309C26.5555 12.8259 26.7708 12.9685 26.9644 13.1586L28.4546 14.6642C28.6281 14.8648 28.7624 15.0818 28.8574 15.3151C28.9525 15.5485 29 15.7818 29 16.0151C29 16.2485 28.9566 16.486 28.8699 16.7277C28.7832 16.9693 28.6448 17.1903 28.4546 17.3906L20.5972 25.248C20.333 25.5125 20.0229 25.7201 19.6668 25.8707C19.3108 26.0216 18.9362 26.0971 18.5431 26.0971H16.9477C16.535 26.0971 16.1891 25.9574 15.9101 25.6782C15.6311 25.3992 15.4916 25.0533 15.4916 24.6406ZM17.4125 24.1762H18.943L24.1727 18.9212L23.4324 18.1559L22.6824 17.4003L17.4125 22.6457V24.1762ZM23.4324 18.1559L22.6824 17.4003L24.1727 18.9212L23.4324 18.1559ZM12.0833 11.9068C10.5326 11.9068 9.20522 11.3547 8.10107 10.2506C6.99665 9.14617 6.44444 7.81861 6.44444 6.26792C6.44444 4.71722 6.99665 3.3898 8.10107 2.28565C9.20522 1.18124 10.5326 0.629028 12.0833 0.629028C13.634 0.629028 14.9614 1.18124 16.0656 2.28565C17.17 3.3898 17.7222 4.71722 17.7222 6.26792C17.7222 7.81861 17.17 9.14617 16.0656 10.2506C14.9614 11.3547 13.634 11.9068 12.0833 11.9068ZM12.0833 9.49014C12.9694 9.49014 13.728 9.17463 14.359 8.54361C14.99 7.91259 15.3056 7.15403 15.3056 6.26792C15.3056 5.38181 14.99 4.62324 14.359 3.99222C13.728 3.3612 12.9694 3.04569 12.0833 3.04569C11.1972 3.04569 10.4387 3.3612 9.80764 3.99222C9.17662 4.62324 8.86111 5.38181 8.86111 6.26792C8.86111 7.15403 9.17662 7.91259 9.80764 8.54361C10.4387 9.17463 11.1972 9.49014 12.0833 9.49014Z" fill="#F7F7F7"/>
</svg>
