<svg width="18" height="18" viewBox="0 0 18 18" fill="none" xmlns="http://www.w3.org/2000/svg">
<path d="M14.1418 5.58198C14.3339 5.58198 14.4949 5.64694 14.6248 5.77687C14.7548 5.90679 14.8197 6.06779 14.8197 6.25985V7.61561H15.4471C15.6392 7.61561 15.8002 7.68057 15.9301 7.81049C16.06 7.94043 16.125 8.10143 16.125 8.29349V9.70694C16.125 9.89901 16.06 10.06 15.9301 10.1899C15.8002 10.3199 15.6392 10.3848 15.4471 10.3848H14.8197V11.7421C14.8197 11.9343 14.7548 12.0951 14.6248 12.2245C14.4949 12.3538 14.3339 12.4185 14.1418 12.4185L2.55292 12.4185C2.36086 12.4185 2.19987 12.3535 2.06994 12.2236C1.94001 12.0936 1.87504 11.9327 1.87504 11.7406V6.26105C1.87504 6.06699 1.94001 5.90529 2.06994 5.77597C2.19987 5.64664 2.36086 5.58198 2.55292 5.58198L14.1418 5.58198ZM13.702 6.70694L10.5072 6.70694V11.2935H13.702V6.70694Z" fill="#EAEAF2"/>
</svg>
