<svg width="18" height="18" viewBox="0 0 18 18" fill="none" xmlns="http://www.w3.org/2000/svg">
<path d="M4.99037 14.625C4.74999 14.625 4.54567 14.5408 4.37741 14.3726C4.20914 14.2043 4.125 14 4.125 13.7596V11.7404C4.125 11.5 4.20914 11.2957 4.37741 11.1274C4.54567 10.9591 4.74999 10.875 4.99037 10.875C5.23076 10.875 5.43508 10.9591 5.60334 11.1274C5.77161 11.2957 5.85574 11.5 5.85574 11.7404V13.7596C5.85574 14 5.77161 14.2043 5.60334 14.3726C5.43508 14.5408 5.23076 14.625 4.99037 14.625ZM9.41826 14.625C9.17788 14.625 8.97356 14.5408 8.80528 14.3726C8.63702 14.2043 8.55289 14 8.55289 13.7596V7.99037C8.55289 7.74999 8.63702 7.54568 8.80528 7.37741C8.97356 7.20914 9.17788 7.125 9.41826 7.125C9.65863 7.125 9.86295 7.20914 10.0312 7.37741C10.1995 7.54568 10.2836 7.74999 10.2836 7.99037V13.7596C10.2836 14 10.1995 14.2043 10.0312 14.3726C9.86295 14.5408 9.65863 14.625 9.41826 14.625ZM13.7596 14.625C13.5192 14.625 13.3149 14.5408 13.1466 14.3726C12.9784 14.2043 12.8942 14 12.8942 13.7596V4.24037C12.8942 3.99999 12.9784 3.79568 13.1466 3.62741C13.3149 3.45914 13.5192 3.375 13.7596 3.375C14 3.375 14.2043 3.45914 14.3726 3.62741C14.5408 3.79568 14.625 3.99999 14.625 4.24037V13.7596C14.625 14 14.5408 14.2043 14.3726 14.3726C14.2043 14.5408 14 14.625 13.7596 14.625Z" fill="#EAEAF2"/>
</svg>
