<svg width="18" height="18" viewBox="0 0 18 18" fill="none" xmlns="http://www.w3.org/2000/svg">
<path d="M9.00005 15.5338C8.57602 15.5338 8.21762 15.3874 7.92483 15.0947C7.63204 14.8019 7.48565 14.4435 7.48565 14.0194C7.48565 13.5954 7.63204 13.237 7.92483 12.9442C8.21762 12.6514 8.57602 12.505 9.00005 12.505C9.42407 12.505 9.78248 12.6514 10.0753 12.9442C10.3681 13.237 10.5145 13.5954 10.5145 14.0194C10.5145 14.4435 10.3681 14.8019 10.0753 15.0947C9.78248 15.3874 9.42407 15.5338 9.00005 15.5338ZM9.00005 8.07715C9.9087 8.07715 10.7681 8.22715 11.5782 8.52715C12.3883 8.82715 13.1202 9.24206 13.7741 9.77187C13.9616 9.91609 14.0584 10.1029 14.0647 10.3322C14.0709 10.5615 13.9904 10.7598 13.8231 10.9271C13.6635 11.0867 13.4671 11.1673 13.2339 11.1687C13.0008 11.1702 12.7904 11.1026 12.603 10.9661C12.1087 10.5882 11.5549 10.2911 10.9414 10.0747C10.3279 9.85837 9.68082 9.75019 9.00005 9.75019C8.31927 9.75019 7.67216 9.85837 7.05869 10.0747C6.44523 10.2911 5.89138 10.5882 5.39714 10.9661C5.20966 11.1026 4.99932 11.1682 4.76615 11.1629C4.53299 11.1577 4.3366 11.0752 4.17699 10.9156C4.01737 10.7483 3.93877 10.55 3.94117 10.3207C3.94358 10.0913 4.03853 9.90456 4.22602 9.76034C4.87987 9.23052 5.61184 8.81754 6.42192 8.52139C7.23202 8.22523 8.0914 8.07715 9.00005 8.07715ZM9.00005 3.57715C10.5433 3.57715 11.9887 3.83701 13.3363 4.35672C14.6839 4.87643 15.8885 5.60504 16.95 6.54254C17.1375 6.70215 17.2363 6.89974 17.2464 7.13532C17.2565 7.37089 17.1779 7.57233 17.0106 7.73963C16.8462 7.90406 16.6462 7.98338 16.4106 7.9776C16.1751 7.97183 15.9611 7.89058 15.7688 7.73385C14.8544 6.94828 13.821 6.33794 12.6686 5.90284C11.5162 5.46774 10.2933 5.25019 9.00005 5.25019C7.70677 5.25019 6.48394 5.46774 5.33154 5.90284C4.17912 6.33794 3.14571 6.94828 2.23128 7.73385C2.03898 7.89058 1.82504 7.97183 1.58947 7.9776C1.35391 7.98338 1.15391 7.90406 0.989487 7.73963C0.822187 7.57233 0.743581 7.37089 0.753668 7.13532C0.763768 6.89974 0.862568 6.70215 1.05007 6.54254C2.11161 5.60504 3.31617 4.87643 4.66376 4.35672C6.01136 3.83701 7.45679 3.57715 9.00005 3.57715Z" fill="#EAEAF2"/>
</svg>
