<svg width="28" height="29" viewBox="0 0 28 29" fill="none" xmlns="http://www.w3.org/2000/svg">
<path d="M14 18.8205C13.8594 18.8205 13.7286 18.7981 13.6074 18.7532C13.4863 18.7084 13.3711 18.6314 13.2618 18.5222L9.63404 14.8944C9.4606 14.7208 9.37494 14.5177 9.37708 14.2851C9.37942 14.0526 9.46507 13.8458 9.63404 13.6647C9.81507 13.4839 10.0229 13.3905 10.2576 13.3845C10.4925 13.3784 10.7005 13.4659 10.8815 13.647L13.125 15.8905V6.96545C13.125 6.71715 13.2088 6.50929 13.3764 6.34187C13.5438 6.17426 13.7517 6.09045 14 6.09045C14.2483 6.09045 14.4562 6.17426 14.6236 6.34187C14.7912 6.50929 14.875 6.71715 14.875 6.96545V15.8905L17.1185 13.647C17.2921 13.4735 17.4982 13.3879 17.7365 13.39C17.9751 13.3923 18.1849 13.4839 18.366 13.6647C18.5349 13.8458 18.6224 14.0507 18.6285 14.2796C18.6345 14.5084 18.547 14.7134 18.366 14.8944L14.7382 18.5222C14.6289 18.6314 14.5137 18.7084 14.3926 18.7532C14.2714 18.7981 14.1406 18.8205 14 18.8205ZM7.35904 23.5905C6.76968 23.5905 6.27083 23.3863 5.8625 22.978C5.45417 22.5696 5.25 22.0708 5.25 21.4814V19.193C5.25 18.9447 5.33381 18.7368 5.50142 18.5694C5.66883 18.4018 5.87669 18.318 6.125 18.318C6.37331 18.318 6.58117 18.4018 6.74858 18.5694C6.91619 18.7368 7 18.9447 7 19.193V21.4814C7 21.5712 7.03743 21.6535 7.11229 21.7282C7.18696 21.803 7.26921 21.8405 7.35904 21.8405H20.641C20.7308 21.8405 20.813 21.803 20.8877 21.7282C20.9626 21.6535 21 21.5712 21 21.4814V19.193C21 18.9447 21.0838 18.7368 21.2514 18.5694C21.4188 18.4018 21.6267 18.318 21.875 18.318C22.1233 18.318 22.3312 18.4018 22.4986 18.5694C22.6662 18.7368 22.75 18.9447 22.75 19.193V21.4814C22.75 22.0708 22.5458 22.5696 22.1375 22.978C21.7292 23.3863 21.2303 23.5905 20.641 23.5905H7.35904Z" fill="#F7F7F7"/>
</svg>
