<svg width="200" height="49" viewBox="0 0 200 49" fill="none" xmlns="http://www.w3.org/2000/svg">
<path fill-rule="evenodd" clip-rule="evenodd" d="M18.76 17.0325C14.577 18.9903 13.856 25.3555 17.076 30.092L19.6915 33.56C20.365 35.0039 19.5695 37.5715 18.4155 38.2912C16.0309 39.7781 12.5824 35.9097 11.3021 34.1093C10.4727 32.943 9.77242 31.7483 9.20249 30.1494C6.54581 22.6944 10.1435 15.8575 14.1447 12.52C25.1256 3.3617 43.2231 13.5099 39.6342 28.3966C38.7452 32.0832 37.1054 34.3786 35.0901 36.2595C32.868 38.3334 29.4057 40.607 28.4917 35.6043C27.7429 31.5046 33.0628 35.5993 32.9734 27.8361C32.9301 24.0926 31.9065 20.8817 30.2098 18.4706C28.7175 16.35 24.3361 14.6282 21.3189 16.9139C18.3864 19.1359 17.8672 24.0797 19.5915 25.2504C20.1589 24.4389 19.6915 24.7782 19.8858 23.8191C20.5441 20.5675 24.28 23.7956 23.653 27.0447C23.2091 29.3458 20.5499 30.267 18.8288 28.5844C14.6083 24.4584 17.127 20.1466 18.76 17.0325ZM10.0832 2.48099C6.98994 2.8991 6.07541 3.90317 4.43457 5.33067C1.16855 8.17277 1.70084 12.8749 1.70009 16.7061C1.69933 20.278 1.49268 37.0295 1.7683 39.0546C2.22531 42.4086 4.21023 44.6415 6.12013 45.8748C9.07693 47.7842 12.3455 47.4093 16.0546 47.4093C19.8256 47.4093 36.1972 47.6287 38.508 47.2725C40.0367 47.0369 41.339 46.4724 42.4832 45.6949C47.2084 42.4837 46.6728 37.661 46.6726 32.8846C46.6723 29.1772 46.6748 25.4695 46.672 21.7619C46.6667 14.5675 48.1441 7.61385 42.0726 3.82279C39.0774 1.95241 36.0102 2.37912 32.223 2.37912C28.52 2.37912 12.3624 2.17284 10.0832 2.48099Z" fill="#EDEDED"/>
<path d="M68.8281 36.4782C67.0352 36.4782 65.4518 36.1755 64.078 35.5701C62.7042 34.9414 61.6215 34.0566 60.8298 32.9156C60.0381 31.7514 59.6306 30.3427 59.6073 28.6895H64.3225C64.3691 29.8304 64.7766 30.7967 65.5449 31.5884C66.3366 32.3568 67.4194 32.741 68.7932 32.741C69.9807 32.741 70.9237 32.4616 71.6223 31.9028C72.3208 31.3206 72.6701 30.5522 72.6701 29.5976C72.6701 28.5963 72.3557 27.8163 71.7271 27.2574C71.1216 26.6986 70.3067 26.2446 69.2822 25.8953C68.2576 25.546 67.1632 25.1735 65.999 24.7776C64.1129 24.1256 62.6693 23.2874 61.668 22.2629C60.6901 21.2383 60.2011 19.8762 60.2011 18.1764C60.1778 16.7327 60.5154 15.4986 61.214 14.4741C61.9358 13.4263 62.9138 12.623 64.1479 12.0641C65.382 11.482 66.8023 11.191 68.409 11.191C70.0389 11.191 71.4709 11.482 72.705 12.0641C73.9624 12.6463 74.9403 13.4612 75.6389 14.509C76.3607 15.5569 76.7449 16.8026 76.7915 18.2462H72.0065C71.9832 17.3847 71.6456 16.628 70.9936 15.976C70.3649 15.3007 69.4801 14.9631 68.3391 14.9631C67.3612 14.9398 66.5346 15.1843 65.8593 15.6966C65.2073 16.1855 64.8813 16.9074 64.8813 17.862C64.8813 18.677 65.1375 19.329 65.6497 19.818C66.162 20.2837 66.8605 20.6795 67.7454 21.0055C68.6302 21.3315 69.6431 21.6807 70.784 22.0533C71.9948 22.4724 73.1009 22.9614 74.1021 23.5202C75.1033 24.0791 75.9067 24.8242 76.5121 25.7556C77.1175 26.6637 77.4202 27.8396 77.4202 29.2832C77.4202 30.5639 77.0942 31.7514 76.4422 32.8458C75.7902 33.9402 74.8239 34.825 73.5433 35.5002C72.2626 36.1522 70.6909 36.4782 68.8281 36.4782ZM89.5287 36.4782C87.8522 36.4782 86.3387 36.094 84.9882 35.3256C83.6609 34.5572 82.6015 33.4978 81.8098 32.1472C81.0414 30.7734 80.6572 29.1901 80.6572 27.3972C80.6572 25.6042 81.0531 24.0325 81.8447 22.682C82.6364 21.3082 83.6959 20.2371 85.0231 19.4687C86.3736 18.7003 87.8871 18.3161 89.5636 18.3161C91.2168 18.3161 92.7071 18.7003 94.0343 19.4687C95.3848 20.2371 96.4443 21.3082 97.2127 22.682C98.0044 24.0325 98.4002 25.6042 98.4002 27.3972C98.4002 29.1901 98.0044 30.7734 97.2127 32.1472C96.4443 33.4978 95.3848 34.5572 94.0343 35.3256C92.6838 36.094 91.1819 36.4782 89.5287 36.4782ZM89.5287 32.6013C90.6929 32.6013 91.7058 32.1705 92.5674 31.309C93.4289 30.4242 93.8597 29.1202 93.8597 27.3972C93.8597 25.6741 93.4289 24.3818 92.5674 23.5202C91.7058 22.6354 90.7046 22.193 89.5636 22.193C88.3761 22.193 87.3516 22.6354 86.49 23.5202C85.6518 24.3818 85.2327 25.6741 85.2327 27.3972C85.2327 29.1202 85.6518 30.4242 86.49 31.309C87.3516 32.1705 88.3645 32.6013 89.5287 32.6013ZM108.894 36.4782C106.728 36.4782 105.052 35.8029 103.864 34.4524C102.7 33.1019 102.118 31.1227 102.118 28.5148V18.7352H106.554V28.0957C106.554 29.5859 106.856 30.7269 107.462 31.5186C108.067 32.3102 109.022 32.7061 110.326 32.7061C111.56 32.7061 112.573 32.2637 113.365 31.3788C114.18 30.494 114.587 29.2599 114.587 27.6766V18.7352H119.058V36.0591H115.111L114.762 33.1252C114.226 34.1497 113.446 34.9647 112.422 35.5701C111.42 36.1755 110.244 36.4782 108.894 36.4782ZM123.647 36.0591V18.7352H127.594L127.943 21.6691C128.479 20.6446 129.247 19.8296 130.248 19.2242C131.273 18.6188 132.472 18.3161 133.846 18.3161C135.988 18.3161 137.653 18.9914 138.84 20.3419C140.028 21.6924 140.622 23.6716 140.622 26.2795V36.0591H136.151V26.6986C136.151 25.2084 135.848 24.0674 135.243 23.2757C134.637 22.4841 133.694 22.0882 132.414 22.0882C131.156 22.0882 130.12 22.5306 129.305 23.4155C128.514 24.3003 128.118 25.5344 128.118 27.1177V36.0591H123.647ZM152.86 36.4782C151.23 36.4782 149.775 36.0824 148.494 35.2907C147.214 34.499 146.201 33.4163 145.456 32.0425C144.71 30.6687 144.338 29.1086 144.338 27.3622C144.338 25.6159 144.71 24.0674 145.456 22.7169C146.201 21.3431 147.214 20.272 148.494 19.5036C149.775 18.7119 151.23 18.3161 152.86 18.3161C154.164 18.3161 155.305 18.5606 156.283 19.0496C157.261 19.5385 158.053 20.2254 158.658 21.1103V10.9115H163.129V36.0591H159.147L158.658 33.5793C158.099 34.3477 157.354 35.0229 156.423 35.605C155.515 36.1871 154.327 36.4782 152.86 36.4782ZM153.803 32.5664C155.247 32.5664 156.423 32.089 157.331 31.1344C158.262 30.1564 158.728 28.9107 158.728 27.3972C158.728 25.8836 158.262 24.6496 157.331 23.6949C156.423 22.7169 155.247 22.2279 153.803 22.2279C152.383 22.2279 151.207 22.7053 150.275 23.6599C149.344 24.6146 148.878 25.8487 148.878 27.3622C148.878 28.8757 149.344 30.1215 150.275 31.0994C151.207 32.0774 152.383 32.5664 153.803 32.5664ZM168.484 36.0591V22.4724H166.109V18.7352H168.484V16.7094C168.484 14.6138 169.008 13.1236 170.056 12.2388C171.127 11.354 172.571 10.9115 174.387 10.9115H176.308V14.7186H175.086C174.317 14.7186 173.77 14.87 173.444 15.1727C173.118 15.4754 172.955 15.9876 172.955 16.7094V18.7352H176.692V22.4724H172.955V36.0591H168.484ZM182.399 43.7431L186.415 34.9065H185.367L178.626 18.7352H183.481L188.336 30.9248L193.401 18.7352H198.151L187.149 43.7431H182.399Z" fill="#EDEDED"/>
</svg>
