<svg width="161" height="40" viewBox="0 0 161 40" fill="none" xmlns="http://www.w3.org/2000/svg">
<path fill-rule="evenodd" clip-rule="evenodd" d="M15.7414 13.7634C12.3849 15.3334 11.8063 20.4377 14.3901 24.2359L16.4888 27.0169C17.0292 28.1748 16.3908 30.2338 15.4649 30.8109C13.5515 32.0033 10.7844 28.9011 9.75711 27.4574C9.0916 26.5221 8.52969 25.5641 8.07237 24.282C5.94065 18.3038 8.82747 12.8212 12.038 10.1448C20.8491 2.80079 35.3705 10.9387 32.4908 22.8764C31.7775 25.8327 30.4617 27.6733 28.8447 29.1817C27.0616 30.8448 24.2834 32.6679 23.55 28.6563C22.9492 25.3687 27.2179 28.6522 27.1461 22.4269C27.1115 19.425 26.2901 16.8501 24.9287 14.9167C23.7312 13.2161 20.2156 11.8355 17.7946 13.6684C15.4415 15.4502 15.025 19.4146 16.4085 20.3534C16.8638 19.7027 16.4888 19.9747 16.6446 19.2056C17.1729 16.5982 20.1706 19.1868 19.6675 21.7923C19.3113 23.6375 17.1776 24.3762 15.7965 23.027C12.41 19.7183 14.431 16.2607 15.7414 13.7634ZM8.77902 2.09454C6.29702 2.42983 5.5632 3.235 4.24659 4.37971C1.62593 6.6588 2.05304 10.4294 2.05244 13.5017C2.05183 16.3661 1.88601 29.7992 2.10717 31.4231C2.47387 34.1127 4.06658 35.9032 5.59908 36.8923C7.97162 38.4233 10.5943 38.1227 13.5705 38.1227C16.5964 38.1227 29.7329 38.2987 31.5871 38.0131C32.8137 37.8241 33.8587 37.3715 34.7768 36.7479C38.5683 34.1729 38.1386 30.3055 38.1384 26.4753C38.1382 23.5023 38.1402 20.5292 38.138 17.556C38.1337 11.7868 39.3192 6.21061 34.4474 3.17054C32.044 1.67067 29.5829 2.01285 26.5441 2.01285C23.5727 2.01285 10.6079 1.84744 8.77902 2.09454Z" fill="#23273B"/>
<path d="M55.9163 30.0922C54.4777 30.0922 53.2072 29.8493 52.1049 29.3636C51.0025 28.8591 50.1337 28.1491 49.4985 27.2336C48.8632 26.2994 48.5363 25.1691 48.5176 23.8425H52.3011C52.3384 24.758 52.6654 25.5334 53.2819 26.1686C53.9172 26.7852 54.786 27.0935 55.8883 27.0935C56.8412 27.0935 57.5979 26.8693 58.1584 26.4209C58.7189 25.9538 58.9992 25.3372 58.9992 24.5712C58.9992 23.7678 58.7469 23.1419 58.2425 22.6935C57.7567 22.2451 57.1028 21.8807 56.2807 21.6005C55.4586 21.3202 54.5805 21.0213 53.6463 20.7037C52.1329 20.1805 50.9745 19.5079 50.1711 18.6858C49.3864 17.8637 48.994 16.7707 48.994 15.4068C48.9754 14.2484 49.2463 13.2582 49.8068 12.4361C50.386 11.5954 51.1707 10.9508 52.1609 10.5024C53.1512 10.0353 54.2909 9.80172 55.58 9.80172C56.8879 9.80172 58.0369 10.0353 59.0272 10.5024C60.0361 10.9695 60.8208 11.6234 61.3813 12.4641C61.9605 13.3049 62.2688 14.3045 62.3062 15.4629H58.4667C58.448 14.7716 58.1771 14.1644 57.6539 13.6412C57.1495 13.0994 56.4395 12.8285 55.524 12.8285C54.7393 12.8098 54.076 13.006 53.5342 13.417C53.011 13.8094 52.7495 14.3886 52.7495 15.1546C52.7495 15.8085 52.955 16.3317 53.366 16.724C53.7771 17.0977 54.3376 17.4153 55.0476 17.6769C55.7575 17.9385 56.5703 18.2187 57.4858 18.5177C58.4573 18.854 59.3448 19.2463 60.1482 19.6947C60.9516 20.1432 61.5962 20.741 62.082 21.4884C62.5677 22.217 62.8106 23.1606 62.8106 24.319C62.8106 25.3466 62.5491 26.2994 62.0259 27.1776C61.5028 28.0557 60.7274 28.7657 59.6998 29.3075C58.6722 29.8307 57.411 30.0922 55.9163 30.0922ZM72.5265 30.0922C71.1813 30.0922 69.9669 29.7839 68.8832 29.1674C67.8182 28.5508 66.9681 27.7007 66.3329 26.6171C65.7163 25.5147 65.408 24.2442 65.408 22.8056C65.408 21.3669 65.7257 20.1058 66.3609 19.0221C66.9962 17.9198 67.8463 17.0603 68.9112 16.4438C69.9949 15.8272 71.2093 15.5189 72.5546 15.5189C73.8811 15.5189 75.0769 15.8272 76.1418 16.4438C77.2255 17.0603 78.0756 17.9198 78.6922 19.0221C79.3274 20.1058 79.645 21.3669 79.645 22.8056C79.645 24.2442 79.3274 25.5147 78.6922 26.6171C78.0756 27.7007 77.2255 28.5508 76.1418 29.1674C75.0582 29.7839 73.8531 30.0922 72.5265 30.0922ZM72.5265 26.9814C73.4607 26.9814 74.2735 26.6357 74.9648 25.9444C75.6561 25.2345 76.0017 24.1882 76.0017 22.8056C76.0017 21.423 75.6561 20.386 74.9648 19.6947C74.2735 18.9848 73.4701 18.6298 72.5546 18.6298C71.6017 18.6298 70.7796 18.9848 70.0883 19.6947C69.4157 20.386 69.0794 21.423 69.0794 22.8056C69.0794 24.1882 69.4157 25.2345 70.0883 25.9444C70.7796 26.6357 71.5923 26.9814 72.5265 26.9814ZM88.0652 30.0922C86.3276 30.0922 84.9824 29.5504 84.0295 28.4667C83.0953 27.3831 82.6282 25.795 82.6282 23.7024V15.8552H86.1875V23.3661C86.1875 24.5618 86.4303 25.4774 86.9161 26.1126C87.4019 26.7478 88.1679 27.0655 89.2142 27.0655C90.2045 27.0655 91.0172 26.7105 91.6524 26.0005C92.3064 25.2905 92.6333 24.3003 92.6333 23.0298V15.8552H96.2206V29.7559H93.0537L92.7735 27.4018C92.3437 28.2239 91.7178 28.8778 90.8958 29.3636C90.0924 29.8493 89.1488 30.0922 88.0652 30.0922ZM99.9031 29.7559V15.8552H103.07L103.35 18.2094C103.78 17.3873 104.397 16.7334 105.2 16.2476C106.022 15.7618 106.984 15.5189 108.087 15.5189C109.805 15.5189 111.141 16.0608 112.094 17.1444C113.047 18.2281 113.524 19.8162 113.524 21.9088V29.7559H109.936V22.2451C109.936 21.0493 109.693 20.1338 109.208 19.4986C108.722 18.8633 107.965 18.5457 106.938 18.5457C105.929 18.5457 105.097 18.9007 104.443 19.6107C103.808 20.3206 103.49 21.3109 103.49 22.5814V29.7559H99.9031ZM123.344 30.0922C122.036 30.0922 120.868 29.7746 119.84 29.1394C118.813 28.5041 118 27.6353 117.402 26.533C116.804 25.4306 116.505 24.1788 116.505 22.7776C116.505 21.3763 116.804 20.1338 117.402 19.0502C118 17.9478 118.813 17.0884 119.84 16.4718C120.868 15.8366 122.036 15.5189 123.344 15.5189C124.39 15.5189 125.305 15.7151 126.09 16.1075C126.875 16.4998 127.51 17.051 127.996 17.761V9.57751H131.583V29.7559H128.388L127.996 27.7661C127.547 28.3827 126.95 28.9245 126.202 29.3916C125.474 29.8587 124.521 30.0922 123.344 30.0922ZM124.1 26.9534C125.259 26.9534 126.202 26.5703 126.931 25.8043C127.678 25.0196 128.052 24.02 128.052 22.8056C128.052 21.5911 127.678 20.6009 126.931 19.8349C126.202 19.0502 125.259 18.6578 124.1 18.6578C122.961 18.6578 122.017 19.0408 121.27 19.8068C120.522 20.5729 120.149 21.5631 120.149 22.7776C120.149 23.992 120.522 24.9916 121.27 25.7763C122.017 26.561 122.961 26.9534 124.1 26.9534ZM135.881 29.7559V18.854H133.975V15.8552H135.881V14.2298C135.881 12.5482 136.301 11.3525 137.142 10.6425C138.001 9.93251 139.16 9.57751 140.617 9.57751H142.158V12.6323H141.178C140.561 12.6323 140.122 12.7537 139.86 12.9966C139.599 13.2395 139.468 13.6506 139.468 14.2298V15.8552H142.467V18.854H139.468V29.7559H135.881ZM147.045 35.9215L150.268 28.8311H149.428L144.019 15.8552H147.914L151.81 25.6362L155.873 15.8552H159.685L150.857 35.9215H147.045Z" fill="#23273B"/>
</svg>
